<svg width="206" height="180" viewBox="0 0 206 180" fill="none" xmlns="http://www.w3.org/2000/svg">
<path d="M174.436 118.135C167.694 138.368 153.911 155.507 135.597 166.433C117.282 177.359 95.6528 181.345 74.6464 177.666C53.6399 173.987 34.6529 162.887 21.1415 146.387C7.63002 129.887 0.492487 109.084 1.0281 87.765C1.5637 66.4455 9.73684 46.0272 24.0598 30.2266C38.3827 14.426 57.9031 4.29375 79.0678 1.67417C100.232 -0.945403 121.634 4.12187 139.377 15.9536C157.12 27.7854 170.025 45.5949 175.742 66.1404" stroke="white"/>
<path d="M134.2 97.92V98H131.22L127.72 92.88H124.56V98H121.98V83.7C124.087 83.54 126.093 83.46 128 83.46C129.88 83.46 131.313 83.8667 132.3 84.68C133.287 85.4933 133.78 86.6733 133.78 88.22C133.767 89.3933 133.48 90.3533 132.92 91.1C132.373 91.8467 131.56 92.36 130.48 92.64L134.2 97.92ZM124.56 90.7H128.3C129.273 90.7 129.987 90.5 130.44 90.1C130.907 89.7 131.14 89.0733 131.14 88.22C131.14 87.34 130.867 86.6933 130.32 86.28C129.787 85.8667 128.96 85.66 127.84 85.66C126.307 85.66 125.213 85.6867 124.56 85.74V90.7ZM141.512 86.9C143.206 86.9 144.472 87.3467 145.312 88.24C146.166 89.1333 146.592 90.4 146.592 92.04C146.592 92.4533 146.559 92.9467 146.492 93.52H138.152C138.286 94.4667 138.659 95.16 139.272 95.6C139.886 96.0267 140.766 96.24 141.912 96.24C142.579 96.24 143.259 96.18 143.952 96.06C144.659 95.9267 145.279 95.7467 145.812 95.52L146.312 97.36C144.912 97.9733 143.372 98.28 141.692 98.28C139.732 98.28 138.226 97.8 137.172 96.84C136.119 95.8667 135.592 94.4533 135.592 92.6C135.592 90.7467 136.099 89.3333 137.112 88.36C138.139 87.3867 139.606 86.9 141.512 86.9ZM144.252 91.76C144.319 90.8133 144.106 90.1067 143.612 89.64C143.132 89.16 142.419 88.92 141.472 88.92C140.432 88.92 139.639 89.1533 139.092 89.62C138.559 90.0867 138.239 90.8 138.132 91.76H144.252ZM153.755 86.92C155.542 86.92 156.855 87.34 157.695 88.18C158.535 89.02 158.955 90.3133 158.955 92.06V98H156.895L156.655 96.68C155.508 97.7467 154.122 98.28 152.495 98.28C151.255 98.28 150.288 97.98 149.595 97.38C148.915 96.78 148.575 95.92 148.575 94.8C148.575 93.5733 148.988 92.7 149.815 92.18C150.642 91.6467 151.795 91.38 153.275 91.38C154.262 91.38 155.335 91.5 156.495 91.74V91.72C156.495 90.6667 156.268 89.94 155.815 89.54C155.375 89.14 154.628 88.94 153.575 88.94C152.962 88.94 152.322 88.9933 151.655 89.1C150.988 89.2067 150.408 89.3667 149.915 89.58L149.355 87.72C149.955 87.4667 150.648 87.2733 151.435 87.14C152.235 86.9933 153.008 86.92 153.755 86.92ZM151.075 94.72C151.075 95.3067 151.255 95.7267 151.615 95.98C151.988 96.22 152.522 96.34 153.215 96.34C153.868 96.34 154.455 96.2333 154.975 96.02C155.508 95.7933 156.015 95.4533 156.495 95V93.34C155.482 93.1533 154.528 93.06 153.635 93.06C152.795 93.06 152.155 93.1867 151.715 93.44C151.288 93.68 151.075 94.1067 151.075 94.72ZM170.307 82.8L172.787 82.38V98H170.847L170.527 96.84C169.461 97.8 168.181 98.28 166.687 98.28C165.074 98.28 163.834 97.78 162.967 96.78C162.114 95.7667 161.687 94.38 161.687 92.62C161.687 90.7667 162.154 89.3533 163.087 88.38C164.034 87.4067 165.401 86.92 167.187 86.92C168.267 86.92 169.307 87.0933 170.307 87.44V82.8ZM164.207 92.56C164.207 94.9867 165.234 96.2 167.287 96.2C168.474 96.2 169.481 95.7867 170.307 94.96V89.4C169.454 89.0933 168.567 88.94 167.647 88.94C166.447 88.94 165.574 89.24 165.027 89.84C164.481 90.4267 164.207 91.3333 164.207 92.56ZM187.407 86.92C189.194 86.92 190.507 87.34 191.347 88.18C192.187 89.02 192.607 90.3133 192.607 92.06V98H190.547L190.307 96.68C189.161 97.7467 187.774 98.28 186.147 98.28C184.907 98.28 183.941 97.98 183.247 97.38C182.567 96.78 182.227 95.92 182.227 94.8C182.227 93.5733 182.641 92.7 183.467 92.18C184.294 91.6467 185.447 91.38 186.927 91.38C187.914 91.38 188.987 91.5 190.147 91.74V91.72C190.147 90.6667 189.921 89.94 189.467 89.54C189.027 89.14 188.281 88.94 187.227 88.94C186.614 88.94 185.974 88.9933 185.307 89.1C184.641 89.2067 184.061 89.3667 183.567 89.58L183.007 87.72C183.607 87.4667 184.301 87.2733 185.087 87.14C185.887 86.9933 186.661 86.92 187.407 86.92ZM184.727 94.72C184.727 95.3067 184.907 95.7267 185.267 95.98C185.641 96.22 186.174 96.34 186.867 96.34C187.521 96.34 188.107 96.2333 188.627 96.02C189.161 95.7933 189.667 95.4533 190.147 95V93.34C189.134 93.1533 188.181 93.06 187.287 93.06C186.447 93.06 185.807 93.1867 185.367 93.44C184.941 93.68 184.727 94.1067 184.727 94.72ZM195.82 98V82.8L198.3 82.38V98H195.82ZM201.601 98V82.8L204.081 82.38V98H201.601Z" fill="white"/>
</svg>
