<svg width="92" height="92" viewBox="0 0 92 92" fill="none" xmlns="http://www.w3.org/2000/svg">
<g opacity="0.1" clip-path="url(#clip0_0_2057)">
<path d="M46 0C33.8 0 22.0998 4.84642 13.4731 13.4731C4.84642 22.0998 0 33.8 0 46C0 58.2 4.84642 69.9002 13.4731 78.5269C22.0998 87.1536 33.8 92 46 92C58.2 92 69.9002 87.1536 78.5269 78.5269C87.1536 69.9002 92 58.2 92 46C92 33.8 87.1536 22.0998 78.5269 13.4731C69.9002 4.84642 58.2 0 46 0ZM67.0967 66.3435C66.9005 66.6653 66.6427 66.9452 66.3381 67.1672C66.0334 67.3891 65.688 67.5488 65.3215 67.6369C64.955 67.7251 64.5748 67.74 64.2025 67.6808C63.8303 67.6217 63.4734 67.4896 63.1522 67.2923C52.348 60.697 38.755 59.202 22.7412 62.8647C21.9993 63.034 21.2206 62.9016 20.5763 62.4967C19.932 62.0918 19.4749 61.4475 19.3056 60.7056C19.1364 59.9637 19.2687 59.1849 19.6736 58.5406C20.0786 57.8963 20.7228 57.4393 21.4648 57.27C38.9907 53.268 54.0213 54.9873 66.1423 62.399C66.7908 62.7965 67.2554 63.4348 67.4343 64.1741C67.6132 64.9134 67.4918 65.6935 67.0967 66.3435ZM72.726 53.82C72.2279 54.6303 71.4284 55.2096 70.5033 55.4306C69.5781 55.6516 68.6031 55.4963 67.7925 54.9987C55.43 47.403 36.5815 45.2008 21.9535 49.6398C21.0631 49.8513 20.1256 49.7153 19.3321 49.2593C18.5386 48.8033 17.949 48.0618 17.6835 47.1861C17.418 46.3103 17.4966 45.3662 17.9032 44.5463C18.3099 43.7265 19.0141 43.0927 19.872 42.7743C36.5758 37.7085 57.3448 40.1637 71.5415 48.8865C72.3527 49.3837 72.9332 50.1828 73.1554 51.108C73.3775 52.0331 73.2231 53.0087 72.726 53.82ZM73.209 40.779C58.3855 31.97 33.925 31.1593 19.7685 35.4545C18.6766 35.7854 17.498 35.669 16.4919 35.131C15.4858 34.5929 14.7347 33.6771 14.4038 32.5853C14.0728 31.4934 14.1892 30.3147 14.7273 29.3086C15.2654 28.3025 16.1811 27.5514 17.273 27.2205C33.5168 22.2928 60.5303 23.2415 77.602 33.373C78.5841 33.9555 79.2946 34.9044 79.5771 36.0107C79.8596 37.1171 79.691 38.2904 79.1085 39.2725C78.526 40.2546 77.5771 40.9651 76.4708 41.2476C75.3644 41.5301 74.1911 41.3615 73.209 40.779Z" fill="white"/>
</g>
<defs>
<clipPath id="clip0_0_2057">
<rect width="92" height="92" fill="white"/>
</clipPath>
</defs>
</svg>
