<svg width="1920" height="707" viewBox="0 0 1920 707" fill="none" xmlns="http://www.w3.org/2000/svg">
<g clip-path="url(#clip0_116_50)">
<path d="M1571.62 616.42L1560.53 663.171C1558.62 671.254 1550.51 676.251 1542.43 674.334L1465.78 656.159C1461.9 655.239 1458.55 652.815 1456.45 649.42C1454.36 646.025 1453.7 641.938 1454.62 638.057L1465.71 591.305L1510.3 631.671C1511.21 632.493 1512.47 632.793 1513.65 632.466L1571.62 616.42ZM1562.26 590.72C1566.08 591.626 1569.39 593.99 1571.49 597.306C1573.59 600.623 1574.31 604.629 1573.5 608.47L1513.64 625.039L1467.6 583.355L1467.66 583.106C1468.71 579.369 1471.17 576.184 1474.51 574.216C1477.86 572.248 1481.83 571.649 1485.61 572.545L1562.26 590.72Z" fill="black"/>
<path d="M1571.62 616.42L1560.53 663.171C1558.62 671.254 1550.51 676.251 1542.43 674.334L1465.78 656.159C1461.9 655.239 1458.55 652.815 1456.45 649.42C1454.36 646.025 1453.7 641.938 1454.62 638.057L1465.71 591.305L1510.3 631.671C1511.21 632.493 1512.47 632.793 1513.65 632.466L1571.62 616.42ZM1562.26 590.72C1566.08 591.626 1569.39 593.99 1571.49 597.306C1573.59 600.623 1574.31 604.629 1573.5 608.47L1513.64 625.039L1467.6 583.355L1467.66 583.106C1468.71 579.369 1471.17 576.184 1474.51 574.216C1477.86 572.248 1481.83 571.649 1485.61 572.545L1562.26 590.72Z" fill="url(#paint0_linear_116_50)"/>
</g>
<path d="M720.316 135.501L725.449 137.059L717.745 162.446L722.668 163.94L730.372 138.552L735.506 140.11L736.807 135.82L721.617 131.211L720.316 135.501ZM740.162 163.488C739.019 164.217 735.538 165.311 736.392 162.498L741.492 145.69L737.132 144.367L731.562 162.722C729.877 168.277 735.88 168.486 739.357 166.393L738.632 168.784L742.992 170.107L749.65 148.166L745.29 146.843L740.232 163.509L740.162 163.488ZM761.507 151.61C758.976 150.842 756.782 152.25 756.782 152.25L759.684 142.686L755.254 141.341L746.227 171.089L750.657 172.433L751.169 170.745C751.169 170.745 752.049 173.162 754.721 173.973C757.042 174.678 759.419 173.172 760.272 170.359L763.964 158.193C764.967 154.887 764.039 152.378 761.507 151.61ZM755.872 168.409C755.381 170.026 754.021 170.459 752.736 169.378C752.394 169.07 752.116 168.698 751.916 168.284L756.056 154.641C756.423 154.445 756.839 154.341 757.184 154.215C758.966 153.911 759.799 155.469 759.308 157.087L755.872 168.409ZM772.458 172.213C771.946 173.901 770.69 174.749 769.614 174.499C768.468 174.228 767.62 172.972 768.239 170.933L769.498 166.784L777.867 169.323L779.574 163.697C779.855 162.847 779.963 161.949 779.891 161.057C779.819 160.164 779.568 159.295 779.154 158.501C778.279 157.031 776.879 155.947 775.236 155.469C773.688 154.999 771.922 155.001 770.357 155.601C768.701 156.251 767.366 157.612 766.704 159.792L763.717 169.638C763.119 171.607 763.283 173.346 763.926 174.77C764.737 176.398 766.141 177.592 767.808 178.175C769.826 178.864 772.262 178.682 774.061 177.308C775.155 176.488 776.074 175.231 776.586 173.543L776.928 172.418L772.778 171.159L772.458 172.213ZM771.205 161.158C771.568 159.962 772.698 158.769 774.034 159.175C775.37 159.58 775.83 161.102 775.425 162.438L774.742 164.689L770.522 163.408L771.205 161.158Z" fill="url(#paint1_linear_116_50)"/>
<path d="M773.532 73.7776C765.22 71.2557 756.492 70.3957 747.848 71.2468C739.203 72.0978 730.811 74.6432 723.15 78.7376C715.489 82.8319 708.71 88.3952 703.199 95.1096C697.688 101.824 693.554 109.558 691.032 117.87C688.51 126.183 687.65 134.91 688.501 143.555C689.352 152.199 691.897 160.592 695.992 168.252C700.086 175.913 705.649 182.693 712.364 188.204C719.078 193.714 726.812 197.849 735.124 200.371C751.912 205.464 770.035 203.68 785.507 195.411C800.978 187.142 812.532 173.065 817.625 156.278C822.718 139.491 820.934 121.368 812.665 105.896C804.396 90.4241 790.32 78.8708 773.532 73.7776ZM777.452 100.849L783.078 102.556L777.358 121.403C776.996 122.598 777.558 122.769 777.769 122.833C778.613 123.089 780.156 122.559 780.981 122.118L786.615 103.553L792.241 105.26L784.687 130.155L779.061 128.447L779.722 126.267C778.735 126.736 777.791 127.064 776.889 127.251C775.664 127.493 774.615 127.406 773.631 127.107C773.084 126.969 772.574 126.712 772.139 126.354C771.703 125.996 771.352 125.546 771.11 125.036C770.712 124.071 770.794 122.79 771.242 121.313L777.452 100.849ZM757.534 101.947C758.708 98.0793 762.833 95.875 766.701 97.0487C770.569 98.2224 772.773 102.347 771.599 106.215L767.971 118.17C766.798 122.038 762.673 124.242 758.805 123.069C754.937 121.895 752.733 117.77 753.907 113.902L757.534 101.947ZM747.495 82.3886L747.115 95.79L754.317 84.4586L760.716 86.4005L748.173 103.945L743.969 117.799L737.71 115.899L741.914 102.045L741.096 80.4466L747.495 82.3886ZM776.291 187.434C771.637 189.862 741.235 180.713 741.235 180.713C741.235 180.713 710.947 171.445 708.357 166.819C705.838 162.215 711.151 144.704 711.194 144.563C711.215 144.493 716.529 126.982 721.204 124.484C725.858 122.056 756.259 131.205 756.259 131.205C756.259 131.205 786.548 140.473 789.137 145.099C791.657 149.704 786.414 167.236 786.371 167.376C786.371 167.376 781.036 184.957 776.291 187.434Z" fill="url(#paint2_linear_116_50)"/>
<path d="M760.047 118.453C761.242 118.815 762.018 118.283 762.43 117.179L766.485 103.817C766.762 102.903 766.082 101.852 765.239 101.596C764.395 101.34 763.267 101.766 762.968 102.75L758.914 116.112C758.594 117.167 758.872 118.019 760.047 118.453Z" fill="url(#paint3_linear_116_50)"/>
<path d="M732.571 96.7787L754.779 74.571M754.779 74.571V94.5579M754.779 74.571H734.792" stroke="#CE3B3B" stroke-width="4"/>
<g clip-path="url(#clip1_116_50)">
<path d="M1506.68 74.7246C1471.52 62.9375 1433.41 81.9111 1421.62 117.077C1409.84 152.242 1428.81 190.348 1463.98 202.136C1499.14 213.923 1537.25 194.949 1549.03 159.784C1560.82 124.618 1541.85 86.5117 1506.68 74.7246ZM1521.72 127.952C1517.39 137.697 1505.05 160.772 1499.17 171.344C1496.68 175.823 1494.36 176.817 1492.64 176.453C1488.84 175.533 1486.95 171.854 1484.17 168.301C1479.81 162.727 1477.39 159.366 1473.17 153.984C1468.25 147.729 1473.1 146.802 1477.97 144.324C1479.24 143.689 1500.53 134.312 1501.29 133.081C1501.41 132.893 1501.47 132.681 1501.48 132.463C1501.49 132.244 1501.45 132.026 1501.36 131.828C1501.08 131.381 1500.53 131.338 1500.06 131.252C1499.45 131.187 1488.54 134.122 1467.22 140.015C1464.1 140.88 1461.51 141.004 1459.49 140.257C1457.22 139.424 1453.29 136.762 1450.4 134.59C1446.82 131.97 1443.93 130.223 1444.93 128.079C1445.45 126.975 1447.42 126.362 1450.82 126.155C1472.14 124.3 1486.29 123.091 1493.32 122.614C1513.51 121.161 1517.57 121.104 1519.99 121.915C1520.5 122.086 1521.67 122.619 1522.22 123.513C1522.68 124.236 1522.64 125.001 1522.53 125.532C1522.34 125.892 1522.08 127.082 1521.72 127.952Z" fill="#696969"/>
<path d="M1506.68 74.7246C1471.52 62.9375 1433.41 81.9111 1421.62 117.077C1409.84 152.242 1428.81 190.348 1463.98 202.136C1499.14 213.923 1537.25 194.949 1549.03 159.784C1560.82 124.618 1541.85 86.5117 1506.68 74.7246ZM1521.72 127.952C1517.39 137.697 1505.05 160.772 1499.17 171.344C1496.68 175.823 1494.36 176.817 1492.64 176.453C1488.84 175.533 1486.95 171.854 1484.17 168.301C1479.81 162.727 1477.39 159.366 1473.17 153.984C1468.25 147.729 1473.1 146.802 1477.97 144.324C1479.24 143.689 1500.53 134.312 1501.29 133.081C1501.41 132.893 1501.47 132.681 1501.48 132.463C1501.49 132.244 1501.45 132.026 1501.36 131.828C1501.08 131.381 1500.53 131.338 1500.06 131.252C1499.45 131.187 1488.54 134.122 1467.22 140.015C1464.1 140.88 1461.51 141.004 1459.49 140.257C1457.22 139.424 1453.29 136.762 1450.4 134.59C1446.82 131.97 1443.93 130.223 1444.93 128.079C1445.45 126.975 1447.42 126.362 1450.82 126.155C1472.14 124.3 1486.29 123.091 1493.32 122.614C1513.51 121.161 1517.57 121.104 1519.99 121.915C1520.5 122.086 1521.67 122.619 1522.22 123.513C1522.68 124.236 1522.64 125.001 1522.53 125.532C1522.34 125.892 1522.08 127.082 1521.72 127.952Z" fill="url(#paint4_linear_116_50)"/>
</g>
<path d="M1473.57 96.7787L1495.78 74.571M1495.78 74.571V94.5579M1495.78 74.571H1475.79" stroke="black" stroke-width="4"/>
<path d="M1404.57 329.779L1426.78 307.571M1426.78 307.571V327.558M1426.78 307.571H1406.79" stroke="black" stroke-width="4"/>
<g clip-path="url(#clip2_116_50)">
<path d="M860.235 319.887L805.208 302.361C796.695 299.66 787.458 300.446 779.523 304.547C771.589 308.648 765.606 315.729 762.886 324.236L745.36 379.263C742.659 387.776 743.445 397.013 747.546 404.948C751.647 412.882 758.728 418.865 767.236 421.585L822.262 439.111C830.775 441.812 840.013 441.026 847.947 436.925C855.881 432.824 861.865 425.743 864.584 417.235L882.11 362.209C884.811 353.696 884.025 344.458 879.924 336.524C875.823 328.59 868.742 322.606 860.235 319.887ZM804.972 398.249C799.531 396.516 794.725 393.208 791.164 388.744C787.602 384.28 785.444 378.86 784.963 373.169C784.482 367.478 785.699 361.773 788.46 356.774C791.222 351.775 795.403 347.707 800.477 345.085C805.55 342.463 811.287 341.404 816.962 342.042C822.637 342.68 827.996 344.987 832.36 348.67C836.724 352.354 839.898 357.249 841.48 362.736C843.062 368.224 842.982 374.057 841.248 379.499C838.917 386.791 833.789 392.861 826.988 396.376C820.187 399.891 812.269 400.565 804.972 398.249ZM856.89 354.176C855.529 353.743 854.328 352.916 853.437 351.8C852.547 350.684 852.008 349.329 851.887 347.906C851.767 346.484 852.071 345.057 852.762 343.807C853.452 342.558 854.497 341.541 855.766 340.885C857.034 340.23 858.468 339.965 859.887 340.124C861.306 340.284 862.645 340.861 863.736 341.782C864.827 342.702 865.621 343.926 866.016 345.298C866.412 346.67 866.392 348.128 865.959 349.489C865.378 351.313 864.096 352.832 862.395 353.711C860.694 354.59 858.714 354.757 856.89 354.176ZM832.077 376.578C830.922 380.206 828.717 383.409 825.741 385.784C822.764 388.158 819.151 389.597 815.357 389.917C811.563 390.238 807.76 389.427 804.427 387.586C801.095 385.745 798.383 382.957 796.634 379.575C794.886 376.193 794.18 372.368 794.606 368.585C795.031 364.801 796.569 361.229 799.025 358.319C801.481 355.41 804.744 353.294 808.402 352.239C812.06 351.185 815.949 351.238 819.577 352.394C824.442 353.943 828.492 357.362 830.836 361.897C833.18 366.432 833.627 371.713 832.077 376.578Z" fill="#696969"/>
<path d="M860.235 319.887L805.208 302.361C796.695 299.66 787.458 300.446 779.523 304.547C771.589 308.648 765.606 315.729 762.886 324.236L745.36 379.263C742.659 387.776 743.445 397.013 747.546 404.948C751.647 412.882 758.728 418.865 767.236 421.585L822.262 439.111C830.775 441.812 840.013 441.026 847.947 436.925C855.881 432.824 861.865 425.743 864.584 417.235L882.11 362.209C884.811 353.696 884.025 344.458 879.924 336.524C875.823 328.59 868.742 322.606 860.235 319.887ZM804.972 398.249C799.531 396.516 794.725 393.208 791.164 388.744C787.602 384.28 785.444 378.86 784.963 373.169C784.482 367.478 785.699 361.773 788.46 356.774C791.222 351.775 795.403 347.707 800.477 345.085C805.55 342.463 811.287 341.404 816.962 342.042C822.637 342.68 827.996 344.987 832.36 348.67C836.724 352.354 839.898 357.249 841.48 362.736C843.062 368.224 842.982 374.057 841.248 379.499C838.917 386.791 833.789 392.861 826.988 396.376C820.187 399.891 812.269 400.565 804.972 398.249ZM856.89 354.176C855.529 353.743 854.328 352.916 853.437 351.8C852.547 350.684 852.008 349.329 851.887 347.906C851.767 346.484 852.071 345.057 852.762 343.807C853.452 342.558 854.497 341.541 855.766 340.885C857.034 340.23 858.468 339.965 859.887 340.124C861.306 340.284 862.645 340.861 863.736 341.782C864.827 342.702 865.621 343.926 866.016 345.298C866.412 346.67 866.392 348.128 865.959 349.489C865.378 351.313 864.096 352.832 862.395 353.711C860.694 354.59 858.714 354.757 856.89 354.176ZM832.077 376.578C830.922 380.206 828.717 383.409 825.741 385.784C822.764 388.158 819.151 389.597 815.357 389.917C811.563 390.238 807.76 389.427 804.427 387.586C801.095 385.745 798.383 382.957 796.634 379.575C794.886 376.193 794.18 372.368 794.606 368.585C795.031 364.801 796.569 361.229 799.025 358.319C801.481 355.41 804.744 353.294 808.402 352.239C812.06 351.185 815.949 351.238 819.577 352.394C824.442 353.943 828.492 357.362 830.836 361.897C833.18 366.432 833.627 371.713 832.077 376.578Z" fill="url(#paint5_linear_116_50)"/>
</g>
<g clip-path="url(#clip3_116_50)">
<path d="M1493.2 351.65C1487.44 352.352 1481.53 352.144 1475.67 351.089C1482.52 349.435 1488.71 345.34 1492.89 339.388C1486.42 340.948 1479.68 341.34 1472.92 340.647C1469.52 333.385 1463.28 327.82 1455.03 325.219C1439.65 320.367 1423.11 328.973 1418.22 344.49C1417.52 346.716 1417.1 348.959 1416.92 351.133C1393.98 342.605 1376.76 324.865 1368.29 303.552C1364.57 306.912 1361.67 311.324 1360.06 316.43C1356.98 326.185 1359.17 336.376 1365.21 343.681C1360.56 342.215 1356.66 339.543 1353.48 336.381L1353.42 336.578C1349.12 350.195 1355.22 364.643 1367.25 371.243C1362.77 371.071 1358.4 369.864 1354.46 367.716C1354.48 373.858 1356.43 379.84 1360.02 384.821C1363.61 389.802 1368.68 393.531 1374.5 395.485C1362.09 400.213 1348.45 400.581 1335.81 396.527C1333.58 395.825 1331.4 394.992 1329.25 394.028C1339.17 405.938 1352.5 415.252 1368.35 420.249C1419.94 436.518 1461.79 402.64 1473.49 365.518C1473.89 364.275 1474.26 363.096 1474.58 361.832C1481.32 359.638 1487.61 356.148 1493.2 351.65Z" fill="#696969"/>
<path d="M1493.2 351.65C1487.44 352.352 1481.53 352.144 1475.67 351.089C1482.52 349.435 1488.71 345.34 1492.89 339.388C1486.42 340.948 1479.68 341.34 1472.92 340.647C1469.52 333.385 1463.28 327.82 1455.03 325.219C1439.65 320.367 1423.11 328.973 1418.22 344.49C1417.52 346.716 1417.1 348.959 1416.92 351.133C1393.98 342.605 1376.76 324.865 1368.29 303.552C1364.57 306.912 1361.67 311.324 1360.06 316.43C1356.98 326.185 1359.17 336.376 1365.21 343.681C1360.56 342.215 1356.66 339.543 1353.48 336.381L1353.42 336.578C1349.12 350.195 1355.22 364.643 1367.25 371.243C1362.77 371.071 1358.4 369.864 1354.46 367.716C1354.48 373.858 1356.43 379.84 1360.02 384.821C1363.61 389.802 1368.68 393.531 1374.5 395.485C1362.09 400.213 1348.45 400.581 1335.81 396.527C1333.58 395.825 1331.4 394.992 1329.25 394.028C1339.17 405.938 1352.5 415.252 1368.35 420.249C1419.94 436.518 1461.79 402.64 1473.49 365.518C1473.89 364.275 1474.26 363.096 1474.58 361.832C1481.32 359.638 1487.61 356.148 1493.2 351.65Z" fill="url(#paint6_linear_116_50)"/>
</g>
<g clip-path="url(#clip4_116_50)">
<path d="M841.664 624.245C853.345 590.807 835.686 554.188 802.247 542.508C768.809 530.827 732.19 548.486 720.51 581.925C710.268 611.244 722.579 642.936 748.234 658.219L762.623 617.026L750.508 612.794L756.856 594.621L768.971 598.853L774.262 583.709C778.345 572.017 791.178 565.829 802.87 569.913L818.014 575.203L811.666 593.376L799.55 589.144C796.219 587.98 792.541 589.754 791.377 593.086L787.145 605.201L805.318 611.549L798.97 629.722L780.797 623.374L766.09 665.476C797.74 673.133 830.682 655.685 841.664 624.245Z" fill="#696969"/>
<path d="M841.664 624.245C853.345 590.807 835.686 554.188 802.247 542.508C768.809 530.827 732.19 548.486 720.51 581.925C710.268 611.244 722.579 642.936 748.234 658.219L762.623 617.026L750.508 612.794L756.856 594.621L768.971 598.853L774.262 583.709C778.345 572.017 791.178 565.829 802.87 569.913L818.014 575.203L811.666 593.376L799.55 589.144C796.219 587.98 792.541 589.754 791.377 593.086L787.145 605.201L805.318 611.549L798.97 629.722L780.797 623.374L766.09 665.476C797.74 673.133 830.682 655.685 841.664 624.245Z" fill="url(#paint7_linear_116_50)"/>
</g>
<path d="M397.375 71.5H403.375L420.125 117.5L436.875 71.5H442.5L422.75 125.375V159H417V125.375L397.375 71.5ZM448.674 92.875C448.674 86.2083 450.257 80.875 453.424 76.875C456.674 72.7917 461.465 70.75 467.799 70.75C474.299 70.75 479.132 72.75 482.299 76.75C485.549 80.75 487.174 86.125 487.174 92.875V137.625C487.174 144.375 485.549 149.75 482.299 153.75C479.132 157.75 474.299 159.75 467.799 159.75C461.465 159.75 456.674 157.75 453.424 153.75C450.257 149.667 448.674 144.292 448.674 137.625V92.875ZM454.424 138C454.424 143.083 455.507 147.125 457.674 150.125C459.84 153.042 463.215 154.5 467.799 154.5C472.465 154.5 475.882 153.042 478.049 150.125C480.299 147.125 481.424 143.083 481.424 138V92.5C481.424 87.4167 480.299 83.4167 478.049 80.5C475.882 77.5 472.465 76 467.799 76C463.215 76 459.84 77.5 457.674 80.5C455.507 83.4167 454.424 87.4167 454.424 92.5V138ZM502.156 137.875C502.156 142.958 503.198 147 505.281 150C507.365 153 510.698 154.5 515.281 154.5C519.865 154.5 523.198 153 525.281 150C527.365 147 528.406 142.958 528.406 137.875V71.5H533.781V137.625C533.781 144.292 532.24 149.667 529.156 153.75C526.156 157.75 521.49 159.75 515.156 159.75C508.823 159.75 504.115 157.75 501.031 153.75C497.948 149.667 496.406 144.292 496.406 137.625V71.5H502.156V137.875ZM558.778 76.75H540.903V71.5H582.278V76.75H564.528V159H558.778V76.75ZM595.296 137.875C595.296 142.958 596.338 147 598.421 150C600.504 153 603.838 154.5 608.421 154.5C613.004 154.5 616.338 153 618.421 150C620.504 147 621.546 142.958 621.546 137.875V71.5H626.921V137.625C626.921 144.292 625.379 149.667 622.296 153.75C619.296 157.75 614.629 159.75 608.296 159.75C601.963 159.75 597.254 157.75 594.171 153.75C591.088 149.667 589.546 144.292 589.546 137.625V71.5H595.296V137.875ZM655.168 71.5C661.585 71.5 666.168 73.0417 668.918 76.125C671.668 79.2083 673.043 83.875 673.043 90.125V95.125C673.043 100.125 672.168 104.042 670.418 106.875C668.751 109.625 665.793 111.458 661.543 112.375C670.293 114.125 674.668 120.375 674.668 131.125V138.75C674.668 145.25 673.085 150.25 669.918 153.75C666.835 157.25 662.043 159 655.543 159H636.793V71.5H655.168ZM652.293 110.125C657.626 110.125 661.46 109.167 663.793 107.25C666.126 105.25 667.293 101.583 667.293 96.25V90.625C667.293 85.875 666.376 82.375 664.543 80.125C662.71 77.875 659.543 76.75 655.043 76.75H642.543V110.125H652.293ZM655.543 153.75C660.21 153.75 663.585 152.5 665.668 150C667.835 147.417 668.918 143.625 668.918 138.625V130.75C668.918 125.167 667.668 121.208 665.168 118.875C662.668 116.542 658.751 115.375 653.418 115.375H642.543V153.75H655.543ZM713.659 117.25H689.784V153.75H718.534V159H684.034V71.5H718.534V76.75H689.784V112H713.659V117.25Z" fill="#CE3B3B"/>
<path d="M404.75 391H399V303.5H404.75V391ZM414.747 391V303.5H422.247L448.497 377.375V303.5H453.747V391H447.372L419.997 313V391H414.747ZM481.825 302.75C488.159 302.75 492.825 304.75 495.825 308.75C498.909 312.667 500.45 317.958 500.45 324.625V326.5H494.95V324.25C494.95 319.25 493.909 315.292 491.825 312.375C489.742 309.458 486.45 308 481.95 308C477.45 308 474.159 309.458 472.075 312.375C469.992 315.292 468.95 319.208 468.95 324.125C468.95 327.292 469.617 330.125 470.95 332.625C472.284 335.042 473.909 337.167 475.825 339C477.825 340.75 480.534 342.875 483.95 345.375C487.534 347.958 490.45 350.25 492.7 352.25C494.95 354.25 496.825 356.708 498.325 359.625C499.825 362.542 500.575 365.958 500.575 369.875C500.575 376.542 499.034 381.875 495.95 385.875C492.867 389.792 488.117 391.75 481.7 391.75C475.284 391.75 470.534 389.792 467.45 385.875C464.367 381.875 462.825 376.542 462.825 369.875V365.375H468.325V370.25C468.325 375.25 469.367 379.208 471.45 382.125C473.617 384.958 476.992 386.375 481.575 386.375C486.159 386.375 489.492 384.958 491.575 382.125C493.742 379.208 494.825 375.25 494.825 370.25C494.825 367.083 494.159 364.292 492.825 361.875C491.492 359.458 489.825 357.375 487.825 355.625C485.909 353.792 483.284 351.667 479.95 349.25C476.367 346.667 473.45 344.375 471.2 342.375C468.95 340.292 467.034 337.792 465.45 334.875C463.95 331.875 463.2 328.417 463.2 324.5C463.2 317.75 464.742 312.458 467.825 308.625C470.909 304.792 475.575 302.833 481.825 302.75ZM524.965 308.75H507.09V303.5H548.465V308.75H530.715V391H524.965V308.75ZM555.222 391H549.972L569.097 303.375H577.472L596.972 391H591.222L586.847 371.625H559.597L555.222 391ZM585.972 366.625L573.097 310L560.472 366.625H585.972ZM624.165 302.75C630.582 302.75 635.332 304.792 638.415 308.875C641.498 312.875 643.04 318.208 643.04 324.875V331.375H637.54V324.5C637.54 319.5 636.457 315.5 634.29 312.5C632.207 309.5 628.873 308 624.29 308C619.707 308 616.332 309.5 614.165 312.5C612.082 315.5 611.04 319.5 611.04 324.5V370C611.04 375 612.082 379 614.165 382C616.332 384.917 619.707 386.375 624.29 386.375C628.873 386.375 632.207 384.917 634.29 382C636.457 379 637.54 375 637.54 370V351.125H625.915V345.875H643.04V369.625C643.04 376.292 641.498 381.667 638.415 385.75C635.332 389.75 630.582 391.75 624.165 391.75C617.748 391.75 612.998 389.75 609.915 385.75C606.832 381.667 605.29 376.292 605.29 369.625V324.875C605.29 318.208 606.832 312.875 609.915 308.875C612.998 304.792 617.748 302.75 624.165 302.75ZM670.912 303.5C683.412 303.5 689.662 310.083 689.662 323.25V330.875C689.662 336.042 688.62 340.125 686.537 343.125C684.537 346.042 681.37 348 677.037 349C685.454 350.833 689.662 356.792 689.662 366.875V380.5C689.662 385.333 690.37 388.833 691.787 391H685.787C685.037 389.75 684.537 388.333 684.287 386.75C684.037 385.083 683.912 383 683.912 380.5V366.75C683.912 361.25 682.537 357.417 679.787 355.25C677.037 353 672.954 351.875 667.537 351.875H658.412V391H652.662V303.5H670.912ZM667.662 346.625C673.162 346.625 677.245 345.583 679.912 343.5C682.579 341.417 683.912 337.583 683.912 332V323.75C683.912 318.833 682.87 315.125 680.787 312.625C678.704 310.042 675.37 308.75 670.787 308.75H658.412V346.625H667.662ZM704.88 391H699.63L718.755 303.375H727.13L746.63 391H740.88L736.505 371.625H709.255L704.88 391ZM735.63 366.625L722.755 310L710.13 366.625H735.63ZM778.948 390.875L760.448 313.5V391H755.323V303.5H763.573L781.948 380.875L800.198 303.5H808.448V391H802.948V313.25L784.698 390.875H778.948Z" fill="#171717"/>
<path d="M427.375 583.375H404.75V623H399V535.5H432.25V540.75H404.75V578.125H427.375V583.375ZM443.405 623H438.155L457.28 535.375H465.655L485.155 623H479.405L475.03 603.625H447.78L443.405 623ZM474.155 598.625L461.28 542L448.655 598.625H474.155ZM512.349 534.75C518.765 534.75 523.515 536.792 526.599 540.875C529.682 544.875 531.224 550.208 531.224 556.875V564.125H525.724V556.5C525.724 551.5 524.64 547.5 522.474 544.5C520.39 541.5 517.057 540 512.474 540C507.89 540 504.515 541.5 502.349 544.5C500.265 547.5 499.224 551.5 499.224 556.5V602C499.224 607 500.265 611 502.349 614C504.515 616.917 507.89 618.375 512.474 618.375C517.057 618.375 520.39 616.917 522.474 614C524.64 611 525.724 607 525.724 602V591.625H531.224V601.625C531.224 608.292 529.682 613.667 526.599 617.75C523.515 621.75 518.765 623.75 512.349 623.75C505.932 623.75 501.182 621.75 498.099 617.75C495.015 613.667 493.474 608.292 493.474 601.625V556.875C493.474 550.208 495.015 544.875 498.099 540.875C501.182 536.792 505.932 534.75 512.349 534.75ZM570.227 581.25H546.352V617.75H575.102V623H540.602V535.5H575.102V540.75H546.352V576H570.227V581.25ZM602.8 535.5C609.216 535.5 613.8 537.042 616.55 540.125C619.3 543.208 620.675 547.875 620.675 554.125V559.125C620.675 564.125 619.8 568.042 618.05 570.875C616.383 573.625 613.425 575.458 609.175 576.375C617.925 578.125 622.3 584.375 622.3 595.125V602.75C622.3 609.25 620.716 614.25 617.55 617.75C614.466 621.25 609.675 623 603.175 623H584.425V535.5H602.8ZM599.925 574.125C605.258 574.125 609.091 573.167 611.425 571.25C613.758 569.25 614.925 565.583 614.925 560.25V554.625C614.925 549.875 614.008 546.375 612.175 544.125C610.341 541.875 607.175 540.75 602.675 540.75H590.175V574.125H599.925ZM603.175 617.75C607.841 617.75 611.216 616.5 613.3 614C615.466 611.417 616.55 607.625 616.55 602.625V594.75C616.55 589.167 615.3 585.208 612.8 582.875C610.3 580.542 606.383 579.375 601.05 579.375H590.175V617.75H603.175ZM631.291 556.875C631.291 550.208 632.874 544.875 636.041 540.875C639.291 536.792 644.083 534.75 650.416 534.75C656.916 534.75 661.749 536.75 664.916 540.75C668.166 544.75 669.791 550.125 669.791 556.875V601.625C669.791 608.375 668.166 613.75 664.916 617.75C661.749 621.75 656.916 623.75 650.416 623.75C644.083 623.75 639.291 621.75 636.041 617.75C632.874 613.667 631.291 608.292 631.291 601.625V556.875ZM637.041 602C637.041 607.083 638.124 611.125 640.291 614.125C642.458 617.042 645.833 618.5 650.416 618.5C655.083 618.5 658.499 617.042 660.666 614.125C662.916 611.125 664.041 607.083 664.041 602V556.5C664.041 551.417 662.916 547.417 660.666 544.5C658.499 541.5 655.083 540 650.416 540C645.833 540 642.458 541.5 640.291 544.5C638.124 547.417 637.041 551.417 637.041 556.5V602ZM678.898 556.875C678.898 550.208 680.482 544.875 683.648 540.875C686.898 536.792 691.69 534.75 698.023 534.75C704.523 534.75 709.357 536.75 712.523 540.75C715.773 544.75 717.398 550.125 717.398 556.875V601.625C717.398 608.375 715.773 613.75 712.523 617.75C709.357 621.75 704.523 623.75 698.023 623.75C691.69 623.75 686.898 621.75 683.648 617.75C680.482 613.667 678.898 608.292 678.898 601.625V556.875ZM684.648 602C684.648 607.083 685.732 611.125 687.898 614.125C690.065 617.042 693.44 618.5 698.023 618.5C702.69 618.5 706.107 617.042 708.273 614.125C710.523 611.125 711.648 607.083 711.648 602V556.5C711.648 551.417 710.523 547.417 708.273 544.5C706.107 541.5 702.69 540 698.023 540C693.44 540 690.065 541.5 687.898 544.5C685.732 547.417 684.648 551.417 684.648 556.5V602ZM732.631 591.375V623H726.881V535.5H732.631V581.75L761.131 535.5H767.131L742.131 576.25L768.756 623H762.756L738.631 581.875L732.631 591.375Z" fill="#171717"/>
<path d="M1090.56 579.874C1094.25 579.874 1096.95 581.01 1098.66 583.282C1100.41 585.554 1101.28 588.631 1101.28 592.512C1101.28 594.737 1100.88 596.819 1100.08 598.76C1099.27 600.653 1098.25 602.357 1097.02 603.872C1095.84 605.387 1094.25 607.209 1092.27 609.339C1090.23 611.564 1088.62 613.433 1087.44 614.948C1086.25 616.463 1085.24 618.19 1084.38 620.131C1083.58 622.072 1083.15 624.178 1083.11 626.45V627.018H1100.86V630H1079.84V627.586C1079.84 624.699 1080.29 622.095 1081.19 619.776C1082.14 617.457 1083.27 615.445 1084.6 613.741C1085.92 611.99 1087.65 610.002 1089.78 607.777C1091.67 605.742 1093.14 604.061 1094.18 602.736C1095.27 601.411 1096.17 599.896 1096.88 598.192C1097.64 596.488 1098.02 594.642 1098.02 592.654C1098.02 586.122 1095.48 582.856 1090.42 582.856C1087.82 582.856 1085.92 583.732 1084.74 585.483C1083.56 587.234 1082.96 589.554 1082.96 592.441V595.849H1079.84V592.654C1079.84 588.82 1080.72 585.743 1082.47 583.424C1084.22 581.057 1086.92 579.874 1090.56 579.874ZM1116.05 585.838C1114.15 588.347 1111.57 589.743 1108.31 590.027V587.187C1110.58 586.998 1112.38 586.311 1113.7 585.128C1115.03 583.897 1116.05 582.264 1116.76 580.229H1119.31V630H1116.05V585.838ZM1137.15 579.874C1140.8 579.874 1143.49 581.01 1145.25 583.282C1147 585.554 1147.87 588.607 1147.87 592.441V593.648C1147.87 596.109 1147.28 598.263 1146.1 600.109C1144.96 601.908 1143.35 603.186 1141.27 603.943C1143.45 604.606 1145.08 605.836 1146.17 607.635C1147.3 609.386 1147.87 611.516 1147.87 614.025V617.859C1147.87 621.693 1147 624.746 1145.25 627.018C1143.49 629.29 1140.8 630.426 1137.15 630.426C1133.51 630.426 1130.81 629.29 1129.06 627.018C1127.31 624.746 1126.43 621.693 1126.43 617.859V615.019H1129.55V618.001C1129.55 620.888 1130.15 623.184 1131.33 624.888C1132.56 626.592 1134.48 627.444 1137.08 627.444C1139.68 627.444 1141.58 626.592 1142.76 624.888C1143.99 623.184 1144.61 620.817 1144.61 617.788V613.954C1144.61 611.351 1143.97 609.339 1142.69 607.919C1141.46 606.452 1139.64 605.671 1137.22 605.576H1133.89V602.594H1137.36C1139.59 602.452 1141.34 601.624 1142.62 600.109C1143.94 598.594 1144.61 596.654 1144.61 594.287V592.512C1144.61 589.483 1143.99 587.116 1142.76 585.412C1141.58 583.708 1139.68 582.856 1137.08 582.856C1134.48 582.856 1132.56 583.708 1131.33 585.412C1130.15 587.069 1129.55 589.341 1129.55 592.228V594.216H1126.43V592.441C1126.43 588.607 1127.31 585.554 1129.06 583.282C1130.81 581.01 1133.51 579.874 1137.15 579.874ZM1172.93 630H1169.74V618.995H1152.77V615.942L1169.24 580.229H1172.93V616.013H1177.12V618.995H1172.93V630ZM1169.74 616.013V586.335L1155.75 616.013H1169.74ZM1185.73 601.032C1186.59 599.707 1187.65 598.736 1188.93 598.121C1190.25 597.506 1191.86 597.198 1193.76 597.198C1197.02 597.198 1199.44 598.31 1201 600.535C1202.61 602.712 1203.41 605.647 1203.41 609.339V617.859C1203.41 621.646 1202.51 624.699 1200.71 627.018C1198.96 629.29 1196.26 630.426 1192.62 630.426C1189.02 630.426 1186.32 629.29 1184.53 627.018C1182.77 624.699 1181.9 621.646 1181.9 617.859V615.161H1185.02V618.001C1185.02 620.841 1185.64 623.113 1186.87 624.817C1188.1 626.521 1189.99 627.373 1192.55 627.373C1195.15 627.373 1197.07 626.521 1198.3 624.817C1199.53 623.113 1200.15 620.841 1200.15 618.001V609.623C1200.15 606.783 1199.53 604.511 1198.3 602.807C1197.07 601.103 1195.15 600.251 1192.55 600.251C1190.75 600.251 1189.24 600.748 1188.01 601.742C1186.82 602.689 1185.97 604.085 1185.45 605.931V606.783H1182.4L1183.67 580.229H1202.35V583.282H1186.66L1185.73 601.032ZM1233.72 578.17C1240.21 578.17 1244.97 579.945 1248 583.495C1251.07 587.045 1252.61 591.968 1252.61 598.263C1252.61 601.955 1252.11 605.458 1251.12 608.771C1250.17 612.037 1248.78 614.711 1246.93 616.794C1245.13 618.829 1242.98 619.847 1240.47 619.847C1238.91 619.847 1237.72 619.397 1236.92 618.498C1236.11 617.599 1235.66 616.392 1235.57 614.877C1234.86 616.581 1233.87 617.906 1232.59 618.853C1231.36 619.8 1229.87 620.273 1228.12 620.273C1225.7 620.273 1223.9 619.492 1222.72 617.93C1221.58 616.321 1221.02 614.214 1221.02 611.611C1221.02 611.185 1221.06 610.451 1221.16 609.41L1221.87 602.381C1222.2 599.304 1223.1 596.843 1224.57 594.997C1226.03 593.104 1228.07 592.157 1230.67 592.157C1234.22 592.157 1236.42 593.837 1237.27 597.198L1237.77 592.512H1240.68L1238.55 612.818C1238.41 613.954 1238.55 614.948 1238.98 615.8C1239.4 616.652 1240.16 617.078 1241.25 617.078C1243.33 617.078 1245.04 616.084 1246.36 614.096C1247.69 612.108 1248.63 609.718 1249.2 606.925C1249.77 604.085 1250.05 601.34 1250.05 598.689C1250.05 593.009 1248.71 588.607 1246.01 585.483C1243.36 582.359 1239.21 580.797 1233.58 580.797C1228.56 580.797 1224.38 582.099 1221.02 584.702C1217.7 587.305 1215.24 590.808 1213.63 595.21C1212.07 599.565 1211.29 604.44 1211.29 609.836C1211.29 616.605 1212.87 621.788 1216.05 625.385C1219.26 628.935 1224.14 630.71 1230.67 630.71C1235.93 630.71 1240.35 629.337 1243.95 626.592L1243.74 629.574C1240.09 632.083 1235.69 633.337 1230.53 633.337C1223.1 633.337 1217.56 631.278 1213.92 627.16C1210.27 623.042 1208.45 617.22 1208.45 609.694C1208.45 603.967 1209.35 598.736 1211.15 594.003C1212.94 589.222 1215.74 585.388 1219.52 582.501C1223.36 579.614 1228.09 578.17 1233.72 578.17ZM1231.59 595.068C1229.56 595.068 1227.97 595.778 1226.84 597.198C1225.7 598.571 1224.99 600.417 1224.71 602.736L1224.07 609.41C1224.02 609.789 1224 610.333 1224 611.043C1224 615.303 1225.77 617.433 1229.32 617.433C1231.36 617.433 1232.92 616.699 1234.01 615.232C1235.1 613.717 1235.76 611.777 1236 609.41L1236.78 602.523C1236.82 602.239 1236.85 601.789 1236.85 601.174C1236.85 599.328 1236.42 597.861 1235.57 596.772C1234.72 595.636 1233.39 595.068 1231.59 595.068ZM1256.83 580.3H1260.24L1269.76 606.428L1279.27 580.3H1282.46L1271.25 610.901V630H1267.98V610.901L1256.83 580.3ZM1286.03 630H1283.05L1293.91 580.229H1298.67L1309.74 630H1306.48L1303.99 618.995H1288.51L1286.03 630ZM1303.49 616.155L1296.18 583.992L1289.01 616.155H1303.49ZM1314.68 630V580.3H1318.94L1333.85 622.261V580.3H1336.83V630H1333.21L1317.66 585.696V630H1314.68ZM1353.35 580.3C1357.04 580.3 1359.79 581.412 1361.59 583.637C1363.43 585.814 1364.35 588.82 1364.35 592.654V617.646C1364.35 621.48 1363.43 624.509 1361.59 626.734C1359.79 628.911 1357.04 630 1353.35 630H1342.42V580.3H1353.35ZM1353.28 627.018C1355.93 627.018 1357.89 626.213 1359.17 624.604C1360.45 622.947 1361.09 620.675 1361.09 617.788V592.512C1361.09 589.672 1360.45 587.424 1359.17 585.767C1357.89 584.11 1355.93 583.282 1353.28 583.282H1345.68V627.018H1353.28ZM1386.56 606.286H1373V627.018H1389.33V630H1369.73V580.3H1389.33V583.282H1373V603.304H1386.56V606.286ZM1397.18 630H1393.99L1405.2 604.227L1394.77 580.3H1398.18L1407.55 601.671L1416.99 580.3H1420.11L1409.68 604.227L1420.82 630H1417.35L1407.26 606.854L1397.18 630ZM1429.09 630H1425.9V623.752H1429.09V630ZM1444.59 579.874C1448.23 579.874 1450.93 581.034 1452.68 583.353C1454.43 585.625 1455.31 588.654 1455.31 592.441V596.559H1452.18V592.228C1452.18 589.388 1451.57 587.116 1450.34 585.412C1449.15 583.708 1447.26 582.856 1444.66 582.856C1442.05 582.856 1440.14 583.708 1438.91 585.412C1437.72 587.116 1437.13 589.388 1437.13 592.228V618.072C1437.13 620.912 1437.72 623.184 1438.91 624.888C1440.14 626.545 1442.05 627.373 1444.66 627.373C1447.26 627.373 1449.15 626.545 1450.34 624.888C1451.57 623.184 1452.18 620.912 1452.18 618.072V612.179H1455.31V617.859C1455.31 621.646 1454.43 624.699 1452.68 627.018C1450.93 629.29 1448.23 630.426 1444.59 630.426C1440.94 630.426 1438.24 629.29 1436.49 627.018C1434.74 624.699 1433.86 621.646 1433.86 617.859V592.441C1433.86 588.654 1434.74 585.625 1436.49 583.353C1438.24 581.034 1440.94 579.874 1444.59 579.874ZM1460.42 592.441C1460.42 588.654 1461.32 585.625 1463.12 583.353C1464.96 581.034 1467.69 579.874 1471.28 579.874C1474.97 579.874 1477.72 581.01 1479.52 583.282C1481.36 585.554 1482.29 588.607 1482.29 592.441V617.859C1482.29 621.693 1481.36 624.746 1479.52 627.018C1477.72 629.29 1474.97 630.426 1471.28 630.426C1467.69 630.426 1464.96 629.29 1463.12 627.018C1461.32 624.699 1460.42 621.646 1460.42 617.859V592.441ZM1463.69 618.072C1463.69 620.959 1464.3 623.255 1465.53 624.959C1466.76 626.616 1468.68 627.444 1471.28 627.444C1473.93 627.444 1475.87 626.616 1477.1 624.959C1478.38 623.255 1479.02 620.959 1479.02 618.072V592.228C1479.02 589.341 1478.38 587.069 1477.1 585.412C1475.87 583.708 1473.93 582.856 1471.28 582.856C1468.68 582.856 1466.76 583.708 1465.53 585.412C1464.3 587.069 1463.69 589.341 1463.69 592.228V618.072ZM1501.09 629.929L1490.58 585.98V630H1487.67V580.3H1492.36L1502.8 624.249L1513.16 580.3H1517.85V630H1514.72V585.838L1504.36 629.929H1501.09Z" fill="#171717"/>
<path d="M1086.14 545.978H1079.84V555.614H1087.43V557H1078.32V533.9H1087.43V535.286H1079.84V544.592H1086.14V545.978ZM1095.9 544.757V546.143H1089.82V544.757H1095.9ZM1104.7 556.967L1099.81 536.54V557H1098.46V533.9H1100.64L1105.49 554.327L1110.31 533.9H1112.49V557H1111.03V536.474L1106.22 556.967H1104.7ZM1116.18 557H1114.79L1119.84 533.867H1122.05L1127.2 557H1125.68L1124.53 551.885H1117.33L1116.18 557ZM1124.3 550.565L1120.9 535.616L1117.56 550.565H1124.3ZM1131.01 557H1129.5V533.9H1131.01V557ZM1133.65 533.9H1135.17V555.614H1142.43V557H1133.65V533.9Z" fill="#171717"/>
<path d="M1097.13 76.75H1079.25V71.5H1120.63V76.75H1102.88V159H1097.13V76.75ZM1157.77 117.25H1133.89V153.75H1162.64V159H1128.14V71.5H1162.64V76.75H1133.89V112H1157.77V117.25ZM1171.97 71.5H1177.72V153.75H1205.22V159H1171.97V71.5ZM1243.46 117.25H1219.59V153.75H1248.34V159H1213.84V71.5H1248.34V76.75H1219.59V112H1243.46V117.25ZM1276.16 70.75C1282.58 70.75 1287.33 72.7917 1290.41 76.875C1293.49 80.875 1295.03 86.2083 1295.03 92.875V99.375H1289.53V92.5C1289.53 87.5 1288.45 83.5 1286.28 80.5C1284.2 77.5 1280.87 76 1276.28 76C1271.7 76 1268.33 77.5 1266.16 80.5C1264.08 83.5 1263.03 87.5 1263.03 92.5V138C1263.03 143 1264.08 147 1266.16 150C1268.33 152.917 1271.7 154.375 1276.28 154.375C1280.87 154.375 1284.2 152.917 1286.28 150C1288.45 147 1289.53 143 1289.53 138V119.125H1277.91V113.875H1295.03V137.625C1295.03 144.292 1293.49 149.667 1290.41 153.75C1287.33 157.75 1282.58 159.75 1276.16 159.75C1269.74 159.75 1264.99 157.75 1261.91 153.75C1258.83 149.667 1257.28 144.292 1257.28 137.625V92.875C1257.28 86.2083 1258.83 80.875 1261.91 76.875C1264.99 72.7917 1269.74 70.75 1276.16 70.75ZM1322.91 71.5C1335.41 71.5 1341.66 78.0833 1341.66 91.25V98.875C1341.66 104.042 1340.61 108.125 1338.53 111.125C1336.53 114.042 1333.36 116 1329.03 117C1337.45 118.833 1341.66 124.792 1341.66 134.875V148.5C1341.66 153.333 1342.36 156.833 1343.78 159H1337.78C1337.03 157.75 1336.53 156.333 1336.28 154.75C1336.03 153.083 1335.91 151 1335.91 148.5V134.75C1335.91 129.25 1334.53 125.417 1331.78 123.25C1329.03 121 1324.95 119.875 1319.53 119.875H1310.41V159H1304.66V71.5H1322.91ZM1319.66 114.625C1325.16 114.625 1329.24 113.583 1331.91 111.5C1334.57 109.417 1335.91 105.583 1335.91 100V91.75C1335.91 86.8333 1334.86 83.125 1332.78 80.625C1330.7 78.0417 1327.36 76.75 1322.78 76.75H1310.41V114.625H1319.66ZM1356.87 159H1351.62L1370.75 71.375H1379.12L1398.62 159H1392.87L1388.5 139.625H1361.25L1356.87 159ZM1387.62 134.625L1374.75 78L1362.12 134.625H1387.62ZM1430.94 158.875L1412.44 81.5V159H1407.32V71.5H1415.57L1433.94 148.875L1452.19 71.5H1460.44V159H1454.94V81.25L1436.69 158.875H1430.94Z" fill="#171717"/>
<path d="M1097.13 308.75H1079.25V303.5H1120.63V308.75H1102.88V391H1097.13V308.75ZM1141.14 391L1127.02 303.5H1132.64L1145.77 383.25L1158.52 303.875H1164.64L1176.89 383L1189.52 303.5H1194.64L1180.64 391H1173.14L1161.39 319.375L1149.14 391H1141.14ZM1209.21 391H1203.46V303.5H1209.21V391ZM1234.33 308.75H1216.46V303.5H1257.83V308.75H1240.08V391H1234.33V308.75ZM1280.47 308.75H1262.6V303.5H1303.97V308.75H1286.22V391H1280.47V308.75ZM1341.12 349.25H1317.24V385.75H1345.99V391H1311.49V303.5H1345.99V308.75H1317.24V344H1341.12V349.25ZM1373.57 303.5C1386.07 303.5 1392.32 310.083 1392.32 323.25V330.875C1392.32 336.042 1391.27 340.125 1389.19 343.125C1387.19 346.042 1384.02 348 1379.69 349C1388.11 350.833 1392.32 356.792 1392.32 366.875V380.5C1392.32 385.333 1393.02 388.833 1394.44 391H1388.44C1387.69 389.75 1387.19 388.333 1386.94 386.75C1386.69 385.083 1386.57 383 1386.57 380.5V366.75C1386.57 361.25 1385.19 357.417 1382.44 355.25C1379.69 353 1375.61 351.875 1370.19 351.875H1361.07V391H1355.32V303.5H1373.57ZM1370.32 346.625C1375.82 346.625 1379.9 345.583 1382.57 343.5C1385.23 341.417 1386.57 337.583 1386.57 332V323.75C1386.57 318.833 1385.52 315.125 1383.44 312.625C1381.36 310.042 1378.02 308.75 1373.44 308.75H1361.07V346.625H1370.32Z" fill="#171717"/>
<path d="M360.02 76.07C360.02 74.43 360.42 73.14 361.22 72.2C362.04 71.26 363.24 70.79 364.82 70.79C366.4 70.79 367.6 71.26 368.42 72.2C369.24 73.14 369.65 74.43 369.65 76.07V86.9C369.65 88.54 369.24 89.84 368.42 90.8C367.6 91.74 366.4 92.21 364.82 92.21C363.26 92.21 362.07 91.74 361.25 90.8C360.43 89.84 360.02 88.54 360.02 86.9V76.07ZM362.33 87.05C362.33 88.01 362.54 88.76 362.96 89.3C363.38 89.82 364 90.08 364.82 90.08C365.66 90.08 366.28 89.82 366.68 89.3C367.1 88.76 367.31 88.01 367.31 87.05V75.95C367.31 74.97 367.1 74.22 366.68 73.7C366.28 73.16 365.66 72.89 364.82 72.89C364 72.89 363.38 73.16 362.96 73.7C362.54 74.22 362.33 74.97 362.33 75.95V87.05ZM376.15 74.81C375.27 75.35 374.3 75.65 373.24 75.71V73.79C374.28 73.75 375.06 73.49 375.58 73.01C376.1 72.53 376.52 71.86 376.84 71H378.46V92H376.15V74.81Z" fill="#B4B4B4"/>
<path d="M360.02 308.07C360.02 306.43 360.42 305.14 361.22 304.2C362.04 303.26 363.24 302.79 364.82 302.79C366.4 302.79 367.6 303.26 368.42 304.2C369.24 305.14 369.65 306.43 369.65 308.07V318.9C369.65 320.54 369.24 321.84 368.42 322.8C367.6 323.74 366.4 324.21 364.82 324.21C363.26 324.21 362.07 323.74 361.25 322.8C360.43 321.84 360.02 320.54 360.02 318.9V308.07ZM362.33 319.05C362.33 320.01 362.54 320.76 362.96 321.3C363.38 321.82 364 322.08 364.82 322.08C365.66 322.08 366.28 321.82 366.68 321.3C367.1 320.76 367.31 320.01 367.31 319.05V307.95C367.31 306.97 367.1 306.22 366.68 305.7C366.28 305.16 365.66 304.89 364.82 304.89C364 304.89 363.38 305.16 362.96 305.7C362.54 306.22 362.33 306.97 362.33 307.95V319.05ZM376.45 302.79C378.03 302.79 379.21 303.26 379.99 304.2C380.79 305.12 381.19 306.41 381.19 308.07V308.61C381.19 309.69 380.97 310.6 380.53 311.34C380.11 312.08 379.48 312.61 378.64 312.93C379.5 313.25 380.14 313.79 380.56 314.55C380.98 315.29 381.19 316.2 381.19 317.28V318.9C381.19 320.56 380.79 321.86 379.99 322.8C379.21 323.74 378.03 324.21 376.45 324.21C374.89 324.21 373.71 323.74 372.91 322.8C372.13 321.86 371.74 320.56 371.74 318.9V317.46H373.93V319.05C373.93 320.01 374.13 320.76 374.53 321.3C374.95 321.82 375.57 322.08 376.39 322.08C377.23 322.08 377.85 321.81 378.25 321.27C378.65 320.73 378.85 319.92 378.85 318.84V317.22C378.85 316.18 378.63 315.41 378.19 314.91C377.75 314.41 377.09 314.14 376.21 314.1H374.95V312H376.33C377.13 311.96 377.75 311.7 378.19 311.22C378.63 310.72 378.85 310.02 378.85 309.12V308.16C378.85 307.06 378.65 306.24 378.25 305.7C377.85 305.16 377.23 304.89 376.39 304.89C375.57 304.89 374.95 305.16 374.53 305.7C374.13 306.22 373.93 306.97 373.93 307.95V309.03H371.74V308.07C371.74 306.41 372.13 305.12 372.91 304.2C373.71 303.26 374.89 302.79 376.45 302.79Z" fill="#B4B4B4"/>
<path d="M360.02 540.07C360.02 538.43 360.42 537.14 361.22 536.2C362.04 535.26 363.24 534.79 364.82 534.79C366.4 534.79 367.6 535.26 368.42 536.2C369.24 537.14 369.65 538.43 369.65 540.07V550.9C369.65 552.54 369.24 553.84 368.42 554.8C367.6 555.74 366.4 556.21 364.82 556.21C363.26 556.21 362.07 555.74 361.25 554.8C360.43 553.84 360.02 552.54 360.02 550.9V540.07ZM362.33 551.05C362.33 552.01 362.54 552.76 362.96 553.3C363.38 553.82 364 554.08 364.82 554.08C365.66 554.08 366.28 553.82 366.68 553.3C367.1 552.76 367.31 552.01 367.31 551.05V539.95C367.31 538.97 367.1 538.22 366.68 537.7C366.28 537.16 365.66 536.89 364.82 536.89C364 536.89 363.38 537.16 362.96 537.7C362.54 538.22 362.33 538.97 362.33 539.95V551.05ZM374.2 543.55C374.88 542.39 375.92 541.81 377.32 541.81C378.62 541.81 379.59 542.25 380.23 543.13C380.89 544.01 381.22 545.23 381.22 546.79V550.9C381.22 552.56 380.82 553.86 380.02 554.8C379.22 555.74 378.04 556.21 376.48 556.21C374.92 556.21 373.74 555.74 372.94 554.8C372.16 553.86 371.77 552.56 371.77 550.9V549.49H373.96V551.05C373.96 552.01 374.16 552.76 374.56 553.3C374.98 553.82 375.6 554.08 376.42 554.08C377.24 554.08 377.85 553.82 378.25 553.3C378.67 552.76 378.88 552.01 378.88 551.05V546.97C378.88 546.01 378.67 545.27 378.25 544.75C377.85 544.21 377.24 543.94 376.42 543.94C375.76 543.94 375.22 544.13 374.8 544.51C374.4 544.87 374.15 545.43 374.05 546.19V546.67H371.86L372.43 535H380.71V537.1H374.53L374.2 543.55Z" fill="#B4B4B4"/>
<path d="M1043.02 76.07C1043.02 74.43 1043.42 73.14 1044.22 72.2C1045.04 71.26 1046.24 70.79 1047.82 70.79C1049.4 70.79 1050.6 71.26 1051.42 72.2C1052.24 73.14 1052.65 74.43 1052.65 76.07V86.9C1052.65 88.54 1052.24 89.84 1051.42 90.8C1050.6 91.74 1049.4 92.21 1047.82 92.21C1046.26 92.21 1045.07 91.74 1044.25 90.8C1043.43 89.84 1043.02 88.54 1043.02 86.9V76.07ZM1045.33 87.05C1045.33 88.01 1045.54 88.76 1045.96 89.3C1046.38 89.82 1047 90.08 1047.82 90.08C1048.66 90.08 1049.28 89.82 1049.68 89.3C1050.1 88.76 1050.31 88.01 1050.31 87.05V75.95C1050.31 74.97 1050.1 74.22 1049.68 73.7C1049.28 73.16 1048.66 72.89 1047.82 72.89C1047 72.89 1046.38 73.16 1045.96 73.7C1045.54 74.22 1045.33 74.97 1045.33 75.95V87.05ZM1059.57 70.79C1061.15 70.79 1062.33 71.26 1063.11 72.2C1063.91 73.14 1064.31 74.44 1064.31 76.1C1064.31 77.16 1064.13 78.13 1063.77 79.01C1063.41 79.89 1062.97 80.67 1062.45 81.35C1061.93 82.03 1061.24 82.84 1060.38 83.78C1059.64 84.62 1059.06 85.3 1058.64 85.82C1058.22 86.34 1057.87 86.92 1057.59 87.56C1057.31 88.18 1057.17 88.84 1057.17 89.54V89.87H1064.07V92H1054.86V90.2C1054.86 89.1 1055.03 88.12 1055.37 87.26C1055.71 86.38 1056.13 85.62 1056.63 84.98C1057.13 84.32 1057.79 83.55 1058.61 82.67C1059.35 81.87 1059.94 81.18 1060.38 80.6C1060.84 80.02 1061.22 79.36 1061.52 78.62C1061.82 77.88 1061.97 77.07 1061.97 76.19C1061.97 75.09 1061.77 74.27 1061.37 73.73C1060.99 73.17 1060.37 72.89 1059.51 72.89C1058.69 72.89 1058.07 73.17 1057.65 73.73C1057.25 74.27 1057.05 75.02 1057.05 75.98V77.84H1054.86V76.13C1054.86 74.47 1055.25 73.17 1056.03 72.23C1056.81 71.27 1057.99 70.79 1059.57 70.79Z" fill="#B4B4B4"/>
<path d="M1043.02 308.07C1043.02 306.43 1043.42 305.14 1044.22 304.2C1045.04 303.26 1046.24 302.79 1047.82 302.79C1049.4 302.79 1050.6 303.26 1051.42 304.2C1052.24 305.14 1052.65 306.43 1052.65 308.07V318.9C1052.65 320.54 1052.24 321.84 1051.42 322.8C1050.6 323.74 1049.4 324.21 1047.82 324.21C1046.26 324.21 1045.07 323.74 1044.25 322.8C1043.43 321.84 1043.02 320.54 1043.02 318.9V308.07ZM1045.33 319.05C1045.33 320.01 1045.54 320.76 1045.96 321.3C1046.38 321.82 1047 322.08 1047.82 322.08C1048.66 322.08 1049.28 321.82 1049.68 321.3C1050.1 320.76 1050.31 320.01 1050.31 319.05V307.95C1050.31 306.97 1050.1 306.22 1049.68 305.7C1049.28 305.16 1048.66 304.89 1047.82 304.89C1047 304.89 1046.38 305.16 1045.96 305.7C1045.54 306.22 1045.33 306.97 1045.33 307.95V319.05ZM1063.38 324H1061.1V319.77H1054.32V317.64L1060.83 303H1063.38V317.64H1065.06V319.77H1063.38V324ZM1061.1 317.64V307.38L1056.48 317.64H1061.1Z" fill="#B4B4B4"/>
<path d="M1043.02 540.07C1043.02 538.43 1043.42 537.14 1044.22 536.2C1045.04 535.26 1046.24 534.79 1047.82 534.79C1049.4 534.79 1050.6 535.26 1051.42 536.2C1052.24 537.14 1052.65 538.43 1052.65 540.07V550.9C1052.65 552.54 1052.24 553.84 1051.42 554.8C1050.6 555.74 1049.4 556.21 1047.82 556.21C1046.26 556.21 1045.07 555.74 1044.25 554.8C1043.43 553.84 1043.02 552.54 1043.02 550.9V540.07ZM1045.33 551.05C1045.33 552.01 1045.54 552.76 1045.96 553.3C1046.38 553.82 1047 554.08 1047.82 554.08C1048.66 554.08 1049.28 553.82 1049.68 553.3C1050.1 552.76 1050.31 552.01 1050.31 551.05V539.95C1050.31 538.97 1050.1 538.22 1049.68 537.7C1049.28 537.16 1048.66 536.89 1047.82 536.89C1047 536.89 1046.38 537.16 1045.96 537.7C1045.54 538.22 1045.33 538.97 1045.33 539.95V551.05ZM1059.54 534.79C1061.12 534.79 1062.3 535.25 1063.08 536.17C1063.88 537.09 1064.28 538.38 1064.28 540.04V540.43H1062.09V539.89C1062.09 538.93 1061.88 538.19 1061.46 537.67C1061.06 537.15 1060.44 536.89 1059.6 536.89C1058.72 536.89 1058.07 537.17 1057.65 537.73C1057.25 538.29 1057.05 539.14 1057.05 540.28V544.99C1057.65 543.49 1058.78 542.74 1060.44 542.74C1061.76 542.74 1062.74 543.18 1063.38 544.06C1064.02 544.94 1064.34 546.16 1064.34 547.72V550.9C1064.34 552.54 1063.93 553.84 1063.11 554.8C1062.29 555.74 1061.1 556.21 1059.54 556.21C1057.96 556.21 1056.76 555.74 1055.94 554.8C1055.12 553.84 1054.71 552.54 1054.71 550.9V540.19C1054.71 538.47 1055.11 537.14 1055.91 536.2C1056.71 535.26 1057.92 534.79 1059.54 534.79ZM1059.54 544.87C1058.7 544.87 1058.07 545.14 1057.65 545.68C1057.25 546.2 1057.05 546.94 1057.05 547.9V551.05C1057.05 552.01 1057.25 552.76 1057.65 553.3C1058.07 553.82 1058.7 554.08 1059.54 554.08C1060.36 554.08 1060.98 553.82 1061.4 553.3C1061.82 552.76 1062.03 552.01 1062.03 551.05V547.9C1062.03 546.94 1061.82 546.2 1061.4 545.68C1060.98 545.14 1060.36 544.87 1059.54 544.87Z" fill="#B4B4B4"/>
<rect x="1920" y="231" width="1.00008" height="1920" transform="rotate(90 1920 231)" fill="#BEBEBE"/>
<rect x="1920" y="463" width="1.00008" height="1920" transform="rotate(90 1920 463)" fill="#BEBEBE"/>
<rect x="1920" y="695" width="1.00008" height="1920" transform="rotate(90 1920 695)" fill="#BEBEBE"/>
<rect x="961" y="696" width="1.00006" height="696" transform="rotate(-180 961 696)" fill="#BEBEBE"/>
<path d="M820.571 329.779L842.779 307.571M842.779 307.571V327.558M842.779 307.571H822.792" stroke="black" stroke-width="4"/>
<path d="M777.571 560.779L799.779 538.571M799.779 538.571V558.558M799.779 538.571H779.792" stroke="black" stroke-width="4"/>
<defs>
<linearGradient id="paint0_linear_116_50" x1="1523.93" y1="581.632" x2="1504.11" y2="665.247" gradientUnits="userSpaceOnUse">
<stop stop-color="#E9E9E9"/>
<stop offset="1" stop-color="#D3D3D3"/>
</linearGradient>
<linearGradient id="paint1_linear_116_50" x1="752.688" y1="140.563" x2="743.51" y2="170.806" gradientUnits="userSpaceOnUse">
<stop stop-color="#E9E9E9"/>
<stop offset="1" stop-color="#D3D3D3"/>
</linearGradient>
<linearGradient id="paint2_linear_116_50" x1="773.536" y1="73.7787" x2="735.121" y2="200.37" gradientUnits="userSpaceOnUse">
<stop stop-color="#E9E9E9"/>
<stop offset="1" stop-color="#D3D3D3"/>
</linearGradient>
<linearGradient id="paint3_linear_116_50" x1="765.239" y1="101.596" x2="760.117" y2="118.474" gradientUnits="userSpaceOnUse">
<stop stop-color="#E9E9E9"/>
<stop offset="1" stop-color="#D3D3D3"/>
</linearGradient>
<linearGradient id="paint4_linear_116_50" x1="1506.68" y1="74.7246" x2="1463.98" y2="202.136" gradientUnits="userSpaceOnUse">
<stop stop-color="#E9E9E9"/>
<stop offset="1" stop-color="#D3D3D3"/>
</linearGradient>
<linearGradient id="paint5_linear_116_50" x1="832.721" y1="311.124" x2="794.749" y2="430.348" gradientUnits="userSpaceOnUse">
<stop stop-color="#E9E9E9"/>
<stop offset="1" stop-color="#D3D3D3"/>
</linearGradient>
<linearGradient id="paint6_linear_116_50" x1="1428.85" y1="316.961" x2="1393.75" y2="428.259" gradientUnits="userSpaceOnUse">
<stop stop-color="#E9E9E9"/>
<stop offset="1" stop-color="#D3D3D3"/>
</linearGradient>
<linearGradient id="paint7_linear_116_50" x1="802.247" y1="542.508" x2="760.032" y2="663.36" gradientUnits="userSpaceOnUse">
<stop stop-color="#E9E9E9"/>
<stop offset="1" stop-color="#D3D3D3"/>
</linearGradient>
<clipPath id="clip0_116_50">
<rect width="137.493" height="137.493" fill="white" transform="translate(1462.99 540.687) rotate(13.3399)"/>
</clipPath>
<clipPath id="clip1_116_50">
<rect width="161.254" height="161.254" fill="white" transform="translate(1434.51 36.3594) rotate(18.5307)"/>
</clipPath>
<clipPath id="clip2_116_50">
<rect width="154" height="154" fill="white" transform="translate(763.734 274) rotate(17.6665)"/>
</clipPath>
<clipPath id="clip3_116_50">
<rect width="164.755" height="164.755" fill="white" transform="translate(1358.55 266) rotate(17.5025)"/>
</clipPath>
<clipPath id="clip4_116_50">
<rect width="154" height="154" fill="white" transform="translate(733.785 505) rotate(19.2548)"/>
</clipPath>
</defs>
</svg>
