<svg width="206" height="180" viewBox="0 0 206 180" fill="none" xmlns="http://www.w3.org/2000/svg">
<path d="M174.436 118.135C167.694 138.368 153.911 155.507 135.597 166.433C117.282 177.359 95.6528 181.345 74.6464 177.666C53.6399 173.987 34.6529 162.887 21.1415 146.387C7.63002 129.887 0.492487 109.084 1.0281 87.765C1.5637 66.4455 9.73684 46.0272 24.0598 30.2266C38.3827 14.426 57.9031 4.29375 79.0678 1.67417C100.232 -0.945403 121.634 4.12187 139.377 15.9536C157.12 27.7854 170.025 45.5949 175.742 66.1404" stroke="#171717"/>
<path d="M114.664 93.0352H117.105C117.262 94.334 118.561 95.1836 120.279 95.1836C121.979 95.1836 123.16 94.3438 123.16 93.1719C123.16 92.1562 122.438 91.5703 120.66 91.1504L118.834 90.7207C116.236 90.125 115.006 88.875 115.006 86.8633C115.006 84.3633 117.184 82.6738 120.25 82.6738C123.355 82.6738 125.406 84.3535 125.465 86.834H123.062C122.945 85.5156 121.842 84.7246 120.23 84.7246C118.639 84.7246 117.564 85.5059 117.564 86.6777C117.564 87.6152 118.277 88.1621 120.006 88.5723L121.627 88.9434C124.488 89.5977 125.699 90.7793 125.699 92.8789C125.699 95.5547 123.551 97.2344 120.143 97.2344C116.9 97.2344 114.771 95.6328 114.664 93.0352ZM136.793 86.3262V97H134.459V95.1348H134.4C133.814 96.4336 132.75 97.1367 131.129 97.1367C128.805 97.1367 127.35 95.6328 127.35 93.1719V86.3262H129.781V92.6836C129.781 94.2363 130.533 95.0762 131.969 95.0762C133.453 95.0762 134.361 94.0312 134.361 92.4492V86.3262H136.793ZM144.762 97.1172C143.199 97.1172 141.998 96.4141 141.373 95.1836H141.314V97H138.941V82.2539H141.373V88.123H141.432C142.047 86.9121 143.258 86.209 144.771 86.209C147.457 86.209 149.186 88.3184 149.186 91.668C149.186 95.0078 147.467 97.1172 144.762 97.1172ZM144.039 88.2305C142.438 88.2305 141.363 89.6172 141.363 91.668C141.363 93.7285 142.438 95.0957 144.039 95.0957C145.65 95.0957 146.695 93.7578 146.695 91.668C146.695 89.5781 145.641 88.2305 144.039 88.2305ZM150.631 89.4121C150.631 87.4785 152.35 86.1797 154.918 86.1797C157.379 86.1797 159.098 87.5078 159.146 89.4414H156.881C156.803 88.543 156.031 87.9766 154.869 87.9766C153.736 87.9766 152.994 88.4941 152.994 89.2754C152.994 89.8711 153.492 90.2812 154.547 90.5254L156.422 90.9551C158.57 91.4531 159.391 92.2637 159.391 93.8359C159.391 95.8184 157.535 97.1562 154.859 97.1562C152.242 97.1562 150.514 95.8379 150.357 93.8555H152.75C152.896 94.8223 153.688 95.3594 154.957 95.3594C156.197 95.3594 156.969 94.8613 156.969 94.0703C156.969 93.4453 156.578 93.1133 155.514 92.8594L153.58 92.3906C151.627 91.9316 150.631 90.9258 150.631 89.4121ZM170.357 90.1055H168.062C167.887 88.9824 167.047 88.1621 165.68 88.1621C164.078 88.1621 163.033 89.5098 163.033 91.6582C163.033 93.875 164.088 95.1738 165.689 95.1738C166.988 95.1738 167.848 94.5 168.072 93.2891H170.367C170.162 95.623 168.336 97.1562 165.67 97.1562C162.574 97.1562 160.562 95.0664 160.562 91.6582C160.562 88.3184 162.564 86.1797 165.65 86.1797C168.443 86.1797 170.191 87.9082 170.357 90.1055ZM171.871 97V86.3262H174.205V88.1816H174.254C174.596 86.9316 175.553 86.209 176.812 86.209C177.135 86.209 177.408 86.248 177.594 86.3066V88.5137C177.389 88.4355 177.008 88.377 176.588 88.377C175.162 88.377 174.303 89.3047 174.303 90.8086V97H171.871ZM178.971 97V86.3262H181.402V97H178.971ZM180.182 84.9688C179.43 84.9688 178.814 84.3828 178.814 83.6309C178.814 82.8691 179.43 82.293 180.182 82.293C180.943 82.293 181.549 82.8691 181.549 83.6309C181.549 84.3828 180.943 84.9688 180.182 84.9688ZM189.449 97.1172C187.887 97.1172 186.686 96.4141 186.061 95.1836H186.002V97H183.629V82.2539H186.061V88.123H186.119C186.734 86.9121 187.945 86.209 189.459 86.209C192.145 86.209 193.873 88.3184 193.873 91.668C193.873 95.0078 192.154 97.1172 189.449 97.1172ZM188.727 88.2305C187.125 88.2305 186.051 89.6172 186.051 91.668C186.051 93.7285 187.125 95.0957 188.727 95.0957C190.338 95.0957 191.383 93.7578 191.383 91.668C191.383 89.5781 190.328 88.2305 188.727 88.2305ZM200.074 88.0742C198.648 88.0742 197.613 89.1094 197.506 90.6328H202.564C202.516 89.0898 201.52 88.0742 200.074 88.0742ZM202.574 93.8262H204.859C204.547 95.7988 202.652 97.1562 200.162 97.1562C197.008 97.1562 195.055 95.0664 195.055 91.707C195.055 88.3477 197.018 86.1797 200.074 86.1797C203.062 86.1797 204.957 88.2207 204.957 91.4531V92.2539H197.486V92.4004C197.486 94.1191 198.58 95.2617 200.211 95.2617C201.383 95.2617 202.291 94.7051 202.574 93.8262Z" fill="#171717"/>
</svg>
