<svg width="206" height="180" viewBox="0 0 206 180" fill="none" xmlns="http://www.w3.org/2000/svg">
<path d="M174.436 118.135C167.694 138.368 153.911 155.507 135.597 166.433C117.282 177.359 95.6528 181.345 74.6464 177.666C53.6399 173.987 34.6529 162.887 21.1415 146.387C7.63002 129.887 0.492487 109.084 1.0281 87.765C1.5637 66.4455 9.73684 46.0272 24.0598 30.2266C38.3827 14.426 57.9031 4.29375 79.0678 1.67417C100.232 -0.945403 121.634 4.12187 139.377 15.9536C157.12 27.7854 170.025 45.5949 175.742 66.1404" stroke="#CE3B3B"/>
<path d="M103.539 93.0352H105.98C106.137 94.334 107.436 95.1836 109.154 95.1836C110.854 95.1836 112.035 94.3438 112.035 93.1719C112.035 92.1562 111.312 91.5703 109.535 91.1504L107.709 90.7207C105.111 90.125 103.881 88.875 103.881 86.8633C103.881 84.3633 106.059 82.6738 109.125 82.6738C112.23 82.6738 114.281 84.3535 114.34 86.834H111.938C111.82 85.5156 110.717 84.7246 109.105 84.7246C107.514 84.7246 106.439 85.5059 106.439 86.6777C106.439 87.6152 107.152 88.1621 108.881 88.5723L110.502 88.9434C113.363 89.5977 114.574 90.7793 114.574 92.8789C114.574 95.5547 112.426 97.2344 109.018 97.2344C105.775 97.2344 103.646 95.6328 103.539 93.0352ZM120.844 88.0742C119.418 88.0742 118.383 89.1094 118.275 90.6328H123.334C123.285 89.0898 122.289 88.0742 120.844 88.0742ZM123.344 93.8262H125.629C125.316 95.7988 123.422 97.1562 120.932 97.1562C117.777 97.1562 115.824 95.0664 115.824 91.707C115.824 88.3477 117.787 86.1797 120.844 86.1797C123.832 86.1797 125.727 88.2207 125.727 91.4531V92.2539H118.256V92.4004C118.256 94.1191 119.35 95.2617 120.98 95.2617C122.152 95.2617 123.061 94.7051 123.344 93.8262ZM127.367 97V86.3262H129.701V88.1816H129.75C130.385 86.8828 131.459 86.1992 133.1 86.1992C135.463 86.1992 136.811 87.6934 136.811 90.1641V97H134.379V90.6426C134.379 89.1191 133.656 88.2598 132.191 88.2598C130.697 88.2598 129.799 89.3145 129.799 90.877V97H127.367ZM142.826 97.1172C140.16 97.1172 138.383 94.9785 138.383 91.6582C138.383 88.3477 140.17 86.209 142.816 86.209C144.359 86.209 145.561 86.9414 146.137 88.123H146.195V82.2539H148.627V97H146.244V95.1836H146.195C145.619 96.375 144.389 97.1172 142.826 97.1172ZM143.539 88.2305C141.928 88.2305 140.873 89.5781 140.873 91.668C140.873 93.7676 141.928 95.0957 143.539 95.0957C145.15 95.0957 146.205 93.7383 146.205 91.668C146.205 89.6074 145.141 88.2305 143.539 88.2305ZM159.232 97.1172C156.566 97.1172 154.789 94.9785 154.789 91.6582C154.789 88.3477 156.576 86.209 159.223 86.209C160.766 86.209 161.967 86.9414 162.543 88.123H162.602V82.2539H165.033V97H162.65V95.1836H162.602C162.025 96.375 160.795 97.1172 159.232 97.1172ZM159.945 88.2305C158.334 88.2305 157.279 89.5781 157.279 91.668C157.279 93.7676 158.334 95.0957 159.945 95.0957C161.557 95.0957 162.611 93.7383 162.611 91.668C162.611 89.6074 161.547 88.2305 159.945 88.2305ZM171.742 88.0742C170.316 88.0742 169.281 89.1094 169.174 90.6328H174.232C174.184 89.0898 173.188 88.0742 171.742 88.0742ZM174.242 93.8262H176.527C176.215 95.7988 174.32 97.1562 171.83 97.1562C168.676 97.1562 166.723 95.0664 166.723 91.707C166.723 88.3477 168.686 86.1797 171.742 86.1797C174.73 86.1797 176.625 88.2207 176.625 91.4531V92.2539H169.154V92.4004C169.154 94.1191 170.248 95.2617 171.879 95.2617C173.051 95.2617 173.959 94.7051 174.242 93.8262ZM178.266 97V86.3262H180.6V88.2012H180.648C181.117 86.9609 182.279 86.1992 183.686 86.1992C185.189 86.1992 186.273 86.9609 186.674 88.3184H186.723C187.24 87.0098 188.52 86.1992 190.053 86.1992C192.152 86.1992 193.539 87.6055 193.539 89.7344V97H191.107V90.3301C191.107 89.002 190.404 88.25 189.154 88.25C187.934 88.25 187.084 89.1582 187.084 90.457V97H184.721V90.1934C184.721 88.9922 183.979 88.25 182.797 88.25C181.566 88.25 180.697 89.1973 180.697 90.5156V97H178.266ZM200.258 97.1562C197.113 97.1562 195.121 95.0664 195.121 91.6582C195.121 88.2891 197.133 86.1797 200.258 86.1797C203.402 86.1797 205.404 88.2793 205.404 91.6582C205.404 95.0664 203.422 97.1562 200.258 97.1562ZM200.258 95.2129C201.938 95.2129 202.934 93.9043 202.934 91.668C202.934 89.4316 201.928 88.123 200.258 88.123C198.598 88.123 197.592 89.4414 197.592 91.668C197.592 93.9043 198.598 95.2129 200.258 95.2129Z" fill="#CE3B3B"/>
</svg>
