<svg width="135" height="118" viewBox="0 0 135 118" fill="none" xmlns="http://www.w3.org/2000/svg">
<path d="M113.155 77.3352C108.796 90.5204 99.8828 101.69 88.0393 108.81C76.1957 115.93 62.2089 118.528 48.6247 116.13C35.0405 113.733 22.7622 106.499 14.0248 95.7465C5.28742 84.9938 0.671808 71.4369 1.01817 57.5433C1.36453 43.6498 6.64983 30.3435 15.912 20.0465C25.1742 9.7495 37.7974 3.14648 51.4839 1.43935C65.1704 -0.267788 79.0101 3.03447 90.484 10.745C101.958 18.4556 110.303 30.0618 114 43.451" stroke="#171717"/>
<path d="M67.2656 66H61.2402V51.9082H67.207C69.7656 51.9082 71.416 53.2852 71.416 55.4238C71.416 56.9375 70.293 58.2559 68.8477 58.4902V58.5684C70.7617 58.7539 72.1094 60.1309 72.1094 61.9961C72.1094 64.4766 70.2734 66 67.2656 66ZM63.7598 53.8711V57.8457H66.1816C67.9395 57.8457 68.9258 57.1035 68.9258 55.7949C68.9258 54.5645 68.0762 53.8711 66.582 53.8711H63.7598ZM63.7598 64.0371H66.6895C68.5449 64.0371 69.5312 63.2656 69.5312 61.8203C69.5312 60.3848 68.5156 59.6328 66.5918 59.6328H63.7598V64.0371ZM78.3789 66.1562C75.2344 66.1562 73.2422 64.0664 73.2422 60.6582C73.2422 57.2891 75.2539 55.1797 78.3789 55.1797C81.5234 55.1797 83.5254 57.2793 83.5254 60.6582C83.5254 64.0664 81.543 66.1562 78.3789 66.1562ZM78.3789 64.2129C80.0586 64.2129 81.0547 62.9043 81.0547 60.668C81.0547 58.4316 80.0488 57.123 78.3789 57.123C76.7188 57.123 75.7129 58.4414 75.7129 60.668C75.7129 62.9043 76.7188 64.2129 78.3789 64.2129ZM89.8438 66.1562C86.6992 66.1562 84.707 64.0664 84.707 60.6582C84.707 57.2891 86.7188 55.1797 89.8438 55.1797C92.9883 55.1797 94.9902 57.2793 94.9902 60.6582C94.9902 64.0664 93.0078 66.1562 89.8438 66.1562ZM89.8438 64.2129C91.5234 64.2129 92.5195 62.9043 92.5195 60.668C92.5195 58.4316 91.5137 57.123 89.8438 57.123C88.1836 57.123 87.1777 58.4414 87.1777 60.668C87.1777 62.9043 88.1836 64.2129 89.8438 64.2129ZM99.1602 59.8086L103.242 55.3262H106.064L101.748 59.9258L106.24 66H103.428L99.9902 61.4004L99.1309 62.2695V66H96.6992V51.2539H99.1309V59.8086H99.1602ZM107.334 66V55.3262H109.766V66H107.334ZM108.545 53.9688C107.793 53.9688 107.178 53.3828 107.178 52.6309C107.178 51.8691 107.793 51.293 108.545 51.293C109.307 51.293 109.912 51.8691 109.912 52.6309C109.912 53.3828 109.307 53.9688 108.545 53.9688ZM111.914 66V55.3262H114.248V57.1816H114.297C114.932 55.8828 116.006 55.1992 117.646 55.1992C120.01 55.1992 121.357 56.6934 121.357 59.1641V66H118.926V59.6426C118.926 58.1191 118.203 57.2598 116.738 57.2598C115.244 57.2598 114.346 58.3145 114.346 59.877V66H111.914ZM128.057 63.998C129.678 63.998 130.742 62.6895 130.742 60.6387C130.742 58.5879 129.678 57.2305 128.057 57.2305C126.455 57.2305 125.42 58.5586 125.42 60.6387C125.42 62.709 126.455 63.998 128.057 63.998ZM128.057 69.8672C125.391 69.8672 123.506 68.666 123.32 66.8008H125.752C125.957 67.5723 126.914 68.0508 128.135 68.0508C129.717 68.0508 130.742 67.2402 130.742 65.9219V64.1055H130.684C130.117 65.248 128.867 65.9609 127.334 65.9609C124.697 65.9609 122.93 63.8906 122.93 60.6289C122.93 57.3184 124.668 55.209 127.383 55.209C128.906 55.209 130.127 55.9414 130.742 57.123H130.791V55.3262H133.174V65.7363C133.174 68.2852 131.191 69.8672 128.057 69.8672Z" fill="#171717"/>
</svg>
