<svg width="135" height="118" viewBox="0 0 135 118" fill="none" xmlns="http://www.w3.org/2000/svg">
<path d="M113.155 77.3352C108.796 90.5204 99.8828 101.69 88.0393 108.81C76.1957 115.93 62.2089 118.528 48.6247 116.13C35.0405 113.733 22.7622 106.499 14.0248 95.7465C5.28742 84.9938 0.671808 71.4369 1.01817 57.5433C1.36453 43.6498 6.64983 30.3435 15.912 20.0465C25.1742 9.7495 37.7974 3.14648 51.4839 1.43935C65.1704 -0.267788 79.0101 3.03447 90.484 10.745C101.958 18.4556 110.303 30.0618 114 43.451" stroke="#171717"/>
<path d="M95.7812 51.9082V66H93.5156V56H93.4473L89.375 65.8828H87.6562L83.584 56H83.5156V66H81.2402V51.9082H84.1602L88.4766 62.543H88.5547L92.8711 51.9082H95.7812ZM107.461 55.3262V66H105.127V64.1348H105.068C104.482 65.4336 103.418 66.1367 101.797 66.1367C99.4727 66.1367 98.0176 64.6328 98.0176 62.1719V55.3262H100.449V61.6836C100.449 63.2363 101.201 64.0762 102.637 64.0762C104.121 64.0762 105.029 63.0312 105.029 61.4492V55.3262H107.461ZM109.346 58.4121C109.346 56.4785 111.064 55.1797 113.633 55.1797C116.094 55.1797 117.812 56.5078 117.861 58.4414H115.596C115.518 57.543 114.746 56.9766 113.584 56.9766C112.451 56.9766 111.709 57.4941 111.709 58.2754C111.709 58.8711 112.207 59.2812 113.262 59.5254L115.137 59.9551C117.285 60.4531 118.105 61.2637 118.105 62.8359C118.105 64.8184 116.25 66.1562 113.574 66.1562C110.957 66.1562 109.229 64.8379 109.072 62.8555H111.465C111.611 63.8223 112.402 64.3594 113.672 64.3594C114.912 64.3594 115.684 63.8613 115.684 63.0703C115.684 62.4453 115.293 62.1133 114.229 61.8594L112.295 61.3906C110.342 60.9316 109.346 59.9258 109.346 58.4121ZM119.795 66V55.3262H122.227V66H119.795ZM121.006 53.9688C120.254 53.9688 119.639 53.3828 119.639 52.6309C119.639 51.8691 120.254 51.293 121.006 51.293C121.768 51.293 122.373 51.8691 122.373 52.6309C122.373 53.3828 121.768 53.9688 121.006 53.9688ZM133.721 59.1055H131.426C131.25 57.9824 130.41 57.1621 129.043 57.1621C127.441 57.1621 126.396 58.5098 126.396 60.6582C126.396 62.875 127.451 64.1738 129.053 64.1738C130.352 64.1738 131.211 63.5 131.436 62.2891H133.73C133.525 64.623 131.699 66.1562 129.033 66.1562C125.938 66.1562 123.926 64.0664 123.926 60.6582C123.926 57.3184 125.928 55.1797 129.014 55.1797C131.807 55.1797 133.555 56.9082 133.721 59.1055Z" fill="#171717"/>
</svg>
