<svg width="1230" height="178" viewBox="0 0 1230 178" fill="none" xmlns="http://www.w3.org/2000/svg">
<path d="M54.416 95.3123H59.1002V118.476H63.5919V95.3123H68.276V91.3981H54.416V95.3123ZM78.0935 113.664C77.3235 114.562 74.6927 116.359 74.6927 113.792V98.4565H70.7144V115.204C70.7144 120.273 75.7835 118.926 78.1577 116.295V118.476H82.136V98.4565H78.1577V113.664H78.0935ZM92.916 98.3281C90.606 98.3281 89.1302 100.061 89.1302 100.061V91.334H85.0877V118.476H89.1302V116.936C89.1302 116.936 90.4777 118.733 92.916 118.733C95.0335 118.733 96.6377 116.872 96.6377 114.306V103.205C96.6377 100.189 95.226 98.3281 92.916 98.3281ZM92.4669 113.792C92.4669 115.268 91.4402 115.974 90.0927 115.396C89.7288 115.226 89.4018 114.987 89.1302 114.691V102.242C89.3869 101.986 89.7077 101.793 89.9644 101.601C91.376 100.895 92.4669 101.986 92.4669 103.461V113.792ZM107.289 112.766C107.289 114.306 106.455 115.332 105.493 115.396C104.466 115.461 103.439 114.626 103.439 112.766V108.98H111.075V103.846C111.095 103.065 110.957 102.287 110.671 101.56C110.384 100.832 109.954 100.17 109.407 99.6115C108.303 98.6046 106.858 98.0542 105.364 98.0715C103.953 98.0715 102.477 98.5206 101.322 99.419C100.103 100.381 99.3327 101.857 99.3327 103.846V112.83C99.3327 114.626 99.9102 116.038 100.809 117.065C101.899 118.22 103.375 118.861 104.915 118.926C106.776 118.99 108.765 118.22 109.92 116.616C110.626 115.653 111.075 114.37 111.075 112.83V111.803H107.289V112.766ZM103.439 103.846C103.439 102.756 104.081 101.472 105.3 101.472C106.519 101.472 107.289 102.627 107.289 103.846V105.9H103.439V103.846Z" fill="#CE3B3B"/>
<path d="M83.2288 30.25C75.6445 30.2504 68.1346 31.7447 61.1278 34.6474C54.121 37.5502 47.7546 41.8046 42.392 47.1678C37.0294 52.531 32.7757 58.8979 29.8737 65.905C26.9718 72.9121 25.4783 80.4222 25.4788 88.0064C25.4792 95.5907 26.9734 103.101 29.8762 110.107C32.7789 117.114 37.0334 123.481 42.3966 128.843C47.7597 134.206 54.1266 138.459 61.1337 141.361C68.1408 144.263 75.6509 145.757 83.2352 145.756C98.5523 145.756 113.242 139.67 124.072 128.839C134.902 118.007 140.986 103.317 140.985 88C140.984 72.6829 134.899 57.9935 124.067 47.1633C113.236 36.333 98.5459 30.2491 83.2288 30.25ZM93.3671 51.8742H98.5004V69.0708C98.5004 70.1617 99.0138 70.1617 99.2063 70.1617C99.9763 70.1617 101.131 69.3275 101.709 68.75V51.81H106.842V74.525H101.709V72.5358C101.003 73.1775 100.297 73.6908 99.5913 74.0758C98.6288 74.5892 97.7304 74.7817 96.8321 74.7817C96.3403 74.8052 95.8493 74.7196 95.3945 74.531C94.9396 74.3424 94.5321 74.0555 94.2013 73.6908C93.6238 72.985 93.3671 71.8942 93.3671 70.5467V51.8742ZM77.0046 57.8417C77.0046 54.3125 79.8921 51.425 83.4213 51.425C86.9504 51.425 89.8379 54.3125 89.8379 57.8417V68.75C89.8379 72.2792 86.9504 75.1667 83.4213 75.1667C79.8921 75.1667 77.0046 72.2792 77.0046 68.75V57.8417ZM63.6579 44.0458L66.7379 55.3392L69.8821 44.0458H75.7213L69.6896 61.8842V74.525H63.9788V61.8842L57.8188 44.0458H63.6579ZM114.35 124.511C111.077 127.719 83.3571 127.783 83.3571 127.783C83.3571 127.783 55.7013 127.719 52.3646 124.511C49.0921 121.302 49.0921 105.325 49.0921 105.197C49.0921 105.132 49.0921 89.155 52.3646 85.8825C55.6371 82.6742 83.3571 82.61 83.3571 82.61C83.3571 82.61 111.013 82.6742 114.35 85.8825C117.622 89.0908 117.686 105.068 117.686 105.197C117.686 105.197 117.686 121.238 114.35 124.511Z" fill="#CE3B3B"/>
<path d="M83.288 70.9957C84.3789 70.9957 84.8922 70.354 84.9564 69.3274V57.1357C84.9564 56.3015 84.1222 55.5957 83.3522 55.5957C82.5822 55.5957 81.748 56.2374 81.748 57.1357V69.3274C81.748 70.2899 82.1972 70.9315 83.288 70.9957Z" fill="#CE3B3B"/>
<path d="M346.001 23.833C310.581 23.833 281.834 52.5797 281.834 87.9997C281.834 123.42 310.581 152.166 346.001 152.166C381.421 152.166 410.167 123.42 410.167 87.9997C410.167 52.5797 381.421 23.833 346.001 23.833ZM375.774 67.4663C374.811 77.6047 370.641 102.245 368.523 113.602C367.625 118.415 365.828 120.019 364.16 120.211C360.438 120.532 357.615 117.773 354.021 115.399C348.375 111.677 345.166 109.367 339.712 105.774C333.36 101.603 337.466 99.293 341.124 95.5713C342.086 94.6088 358.513 79.658 358.834 78.3105C358.879 78.1064 358.873 77.8945 358.817 77.6932C358.761 77.492 358.657 77.3074 358.513 77.1555C358.128 76.8347 357.615 76.963 357.166 77.0272C356.588 77.1555 347.605 83.123 330.087 94.9297C327.521 96.6622 325.211 97.5605 323.157 97.4963C320.847 97.4322 316.484 96.213 313.211 95.1222C309.169 93.8388 306.025 93.133 306.281 90.8872C306.41 89.7322 308.014 88.5772 311.03 87.358C329.766 79.2088 342.215 73.8188 348.439 71.2522C366.277 63.8088 369.935 62.5255 372.373 62.5255C372.886 62.5255 374.106 62.6538 374.876 63.2955C375.517 63.8088 375.71 64.5147 375.774 65.028C375.71 65.413 375.838 66.568 375.774 67.4663Z" fill="#696969"/>
<path d="M643.875 25.4375H586.125C577.193 25.4471 568.63 28.9993 562.315 35.3149C555.999 41.6305 552.447 50.1935 552.438 59.125V116.875C552.447 125.807 555.999 134.37 562.315 140.685C568.63 147.001 577.193 150.553 586.125 150.562H643.875C652.807 150.553 661.37 147.001 667.685 140.685C674.001 134.37 677.553 125.807 677.562 116.875V59.125C677.553 50.1935 674.001 41.6305 667.685 35.3149C661.37 28.9993 652.807 25.4471 643.875 25.4375ZM615 116.875C609.289 116.875 603.706 115.182 598.958 112.009C594.209 108.836 590.508 104.326 588.323 99.05C586.138 93.7738 585.566 87.968 586.68 82.3668C587.794 76.7656 590.544 71.6205 594.582 67.5823C598.621 63.5441 603.766 60.794 609.367 59.6798C614.968 58.5657 620.774 59.1375 626.05 61.323C631.326 63.5085 635.836 67.2094 639.009 71.9579C642.182 76.7064 643.875 82.2891 643.875 88C643.867 95.6557 640.822 102.996 635.409 108.409C629.996 113.822 622.656 116.867 615 116.875ZM651.094 59.125C649.666 59.125 648.27 58.7016 647.083 57.9084C645.896 57.1152 644.971 55.9878 644.424 54.6687C643.878 53.3497 643.735 51.8982 644.014 50.4979C644.292 49.0976 644.98 47.8114 645.989 46.8018C646.999 45.7923 648.285 45.1047 649.685 44.8262C651.086 44.5477 652.537 44.6906 653.856 45.237C655.175 45.7834 656.303 46.7086 657.096 47.8957C657.889 49.0828 658.312 50.4785 658.312 51.9062C658.312 53.8208 657.552 55.6569 656.198 57.0107C654.844 58.3645 653.008 59.125 651.094 59.125ZM634.25 88C634.25 91.8073 633.121 95.5291 631.006 98.6947C628.891 101.86 625.884 104.328 622.367 105.785C618.849 107.242 614.979 107.623 611.245 106.88C607.51 106.137 604.08 104.304 601.388 101.612C598.696 98.9196 596.863 95.4896 596.12 91.7555C595.377 88.0214 595.758 84.1508 597.215 80.6333C598.672 77.1159 601.14 74.1094 604.305 71.9942C607.471 69.879 611.193 68.75 615 68.75C620.105 68.75 625.002 70.7781 628.612 74.3882C632.222 77.9983 634.25 82.8946 634.25 88Z" fill="#696969"/>
<path d="M951.112 49.5003C946.171 51.7462 940.845 53.222 935.327 53.9278C940.973 50.527 945.337 45.137 947.39 38.6562C942.064 41.8645 936.161 44.1103 929.937 45.3937C924.868 39.8753 917.745 36.667 909.66 36.667C894.581 36.667 882.261 48.987 882.261 64.1945C882.261 66.3762 882.518 68.4937 882.967 70.4828C860.123 69.3278 839.783 58.3553 826.243 41.7362C823.869 45.7787 822.522 50.527 822.522 55.532C822.522 65.0928 827.334 73.5628 834.778 78.3753C830.222 78.3753 825.987 77.092 822.265 75.167V75.3595C822.265 88.7062 831.762 99.8712 844.338 102.374C840.301 103.479 836.061 103.632 831.954 102.823C833.697 108.293 837.11 113.079 841.714 116.509C846.318 119.939 851.881 121.84 857.621 121.944C847.891 129.647 835.83 133.811 823.42 133.751C821.238 133.751 819.057 133.623 816.875 133.366C829.067 141.194 843.568 145.75 859.097 145.75C909.66 145.75 937.444 103.785 937.444 67.4028C937.444 66.1837 937.444 65.0287 937.38 63.8095C942.77 59.9595 947.39 55.0828 951.112 49.5003Z" fill="#696969"/>
<path d="M1217.17 87.9997C1217.17 52.5797 1188.42 23.833 1153 23.833C1117.58 23.833 1088.83 52.5797 1088.83 87.9997C1088.83 119.056 1110.91 144.916 1140.17 150.883V107.25H1127.33V87.9997H1140.17V71.958C1140.17 59.5738 1150.24 49.4997 1162.63 49.4997H1178.67V68.7497H1165.83C1162.3 68.7497 1159.42 71.6372 1159.42 75.1663V87.9997H1178.67V107.25H1159.42V151.846C1191.82 148.637 1217.17 121.302 1217.17 87.9997Z" fill="#696969"/>
<rect x="205" width="1" height="178" fill="#BEBEBE"/>
<rect x="480" width="1" height="178" fill="#BEBEBE"/>
<rect x="751" width="1" height="178" fill="#BEBEBE"/>
<rect x="1020" width="1" height="178" fill="#BEBEBE"/>
</svg>
