<svg width="208" height="180" viewBox="0 0 208 180" fill="none" xmlns="http://www.w3.org/2000/svg">
<path d="M174.436 118.135C167.694 138.368 153.911 155.507 135.597 166.433C117.282 177.359 95.6528 181.345 74.6464 177.666C53.6399 173.987 34.6529 162.887 21.1415 146.387C7.63002 129.887 0.492487 109.084 1.0281 87.765C1.5637 66.4455 9.73684 46.0272 24.0598 30.2266C38.3827 14.426 57.9031 4.29375 79.0678 1.67417C100.232 -0.945403 121.634 4.12187 139.377 15.9536C157.12 27.7854 170.025 45.5949 175.742 66.1404" stroke="#171717"/>
<path d="M62.4199 86.3262L59.5195 97H56.9707L54.8418 89.1582H54.7832L52.6641 97H50.1348L47.2344 86.3262H49.666L51.502 94.5684H51.5508L53.6699 86.3262H56.0039L58.123 94.5684H58.1719L60.0176 86.3262H62.4199ZM67.3613 95.252C68.8359 95.252 69.959 94.334 69.959 93.0352V92.2246L67.5176 92.3809C66.1895 92.4688 65.4863 92.9766 65.4863 93.8457C65.4863 94.7051 66.2285 95.252 67.3613 95.252ZM66.6484 97.1172C64.5488 97.1172 63.0449 95.8379 63.0449 93.9434C63.0449 92.0391 64.5 90.9551 67.1855 90.7891L69.959 90.623V89.8418C69.959 88.709 69.1973 88.0938 67.8887 88.0938C66.7852 88.0938 65.9941 88.6699 65.8281 89.5293H63.582C63.6406 87.5762 65.457 86.1797 67.9668 86.1797C70.6328 86.1797 72.3613 87.5664 72.3613 89.6855V97H70.0273V95.2812H69.9688C69.3828 96.4238 68.0645 97.1172 66.6484 97.1172ZM75.0859 83.9434H77.5176V86.3262H79.5391V88.2109H77.5176V93.8359C77.5176 94.7148 77.9277 95.1348 78.8066 95.1348C79.041 95.1348 79.373 95.1055 79.5293 95.0859V96.9512C79.2656 97.0098 78.7676 97.0488 78.25 97.0488C75.9844 97.0488 75.0859 96.2285 75.0859 94.168V88.2109H73.6309V86.3262H75.0859V83.9434ZM90.4082 90.1055H88.1133C87.9375 88.9824 87.0977 88.1621 85.7305 88.1621C84.1289 88.1621 83.084 89.5098 83.084 91.6582C83.084 93.875 84.1387 95.1738 85.7402 95.1738C87.0391 95.1738 87.8984 94.5 88.123 93.2891H90.418C90.2129 95.623 88.3867 97.1562 85.7207 97.1562C82.625 97.1562 80.6133 95.0664 80.6133 91.6582C80.6133 88.3184 82.6152 86.1797 85.7012 86.1797C88.4941 86.1797 90.2422 87.9082 90.4082 90.1055ZM92 97V82.2539H94.4023V88.1816H94.4512C95.0762 86.8828 96.1895 86.1992 97.8203 86.1992C100.174 86.1992 101.561 87.752 101.561 90.1836V97H99.1289V90.6719C99.1289 89.168 98.377 88.2598 96.9023 88.2598C95.3594 88.2598 94.4316 89.3242 94.4316 90.916V97H92ZM111.912 95.252C113.387 95.252 114.51 94.334 114.51 93.0352V92.2246L112.068 92.3809C110.74 92.4688 110.037 92.9766 110.037 93.8457C110.037 94.7051 110.779 95.252 111.912 95.252ZM111.199 97.1172C109.1 97.1172 107.596 95.8379 107.596 93.9434C107.596 92.0391 109.051 90.9551 111.736 90.7891L114.51 90.623V89.8418C114.51 88.709 113.748 88.0938 112.439 88.0938C111.336 88.0938 110.545 88.6699 110.379 89.5293H108.133C108.191 87.5762 110.008 86.1797 112.518 86.1797C115.184 86.1797 116.912 87.5664 116.912 89.6855V97H114.578V95.2812H114.52C113.934 96.4238 112.615 97.1172 111.199 97.1172ZM119.031 97V82.2539H121.463V97H119.031ZM123.699 97V82.2539H126.131V97H123.699ZM132.762 97V86.3262H135.096V88.1816H135.145C135.486 86.9316 136.443 86.209 137.703 86.209C138.025 86.209 138.299 86.248 138.484 86.3066V88.5137C138.279 88.4355 137.898 88.377 137.479 88.377C136.053 88.377 135.193 89.3047 135.193 90.8086V97H132.762ZM143.973 88.0742C142.547 88.0742 141.512 89.1094 141.404 90.6328H146.463C146.414 89.0898 145.418 88.0742 143.973 88.0742ZM146.473 93.8262H148.758C148.445 95.7988 146.551 97.1562 144.061 97.1562C140.906 97.1562 138.953 95.0664 138.953 91.707C138.953 88.3477 140.916 86.1797 143.973 86.1797C146.961 86.1797 148.855 88.2207 148.855 91.4531V92.2539H141.385V92.4004C141.385 94.1191 142.479 95.2617 144.109 95.2617C145.281 95.2617 146.189 94.7051 146.473 93.8262ZM150.574 97V82.2539H153.006V97H150.574ZM159.734 88.0742C158.309 88.0742 157.273 89.1094 157.166 90.6328H162.225C162.176 89.0898 161.18 88.0742 159.734 88.0742ZM162.234 93.8262H164.52C164.207 95.7988 162.312 97.1562 159.822 97.1562C156.668 97.1562 154.715 95.0664 154.715 91.707C154.715 88.3477 156.678 86.1797 159.734 86.1797C162.723 86.1797 164.617 88.2207 164.617 91.4531V92.2539H157.146V92.4004C157.146 94.1191 158.24 95.2617 159.871 95.2617C161.043 95.2617 161.951 94.7051 162.234 93.8262ZM170.115 95.252C171.59 95.252 172.713 94.334 172.713 93.0352V92.2246L170.271 92.3809C168.943 92.4688 168.24 92.9766 168.24 93.8457C168.24 94.7051 168.982 95.252 170.115 95.252ZM169.402 97.1172C167.303 97.1172 165.799 95.8379 165.799 93.9434C165.799 92.0391 167.254 90.9551 169.939 90.7891L172.713 90.623V89.8418C172.713 88.709 171.951 88.0938 170.643 88.0938C169.539 88.0938 168.748 88.6699 168.582 89.5293H166.336C166.395 87.5762 168.211 86.1797 170.721 86.1797C173.387 86.1797 175.115 87.5664 175.115 89.6855V97H172.781V95.2812H172.723C172.137 96.4238 170.818 97.1172 169.402 97.1172ZM176.971 89.4121C176.971 87.4785 178.689 86.1797 181.258 86.1797C183.719 86.1797 185.438 87.5078 185.486 89.4414H183.221C183.143 88.543 182.371 87.9766 181.209 87.9766C180.076 87.9766 179.334 88.4941 179.334 89.2754C179.334 89.8711 179.832 90.2812 180.887 90.5254L182.762 90.9551C184.91 91.4531 185.73 92.2637 185.73 93.8359C185.73 95.8184 183.875 97.1562 181.199 97.1562C178.582 97.1562 176.854 95.8379 176.697 93.8555H179.09C179.236 94.8223 180.027 95.3594 181.297 95.3594C182.537 95.3594 183.309 94.8613 183.309 94.0703C183.309 93.4453 182.918 93.1133 181.854 92.8594L179.92 92.3906C177.967 91.9316 176.971 90.9258 176.971 89.4121ZM191.922 88.0742C190.496 88.0742 189.461 89.1094 189.354 90.6328H194.412C194.363 89.0898 193.367 88.0742 191.922 88.0742ZM194.422 93.8262H196.707C196.395 95.7988 194.5 97.1562 192.01 97.1562C188.855 97.1562 186.902 95.0664 186.902 91.707C186.902 88.3477 188.865 86.1797 191.922 86.1797C194.91 86.1797 196.805 88.2207 196.805 91.4531V92.2539H189.334V92.4004C189.334 94.1191 190.428 95.2617 192.059 95.2617C193.23 95.2617 194.139 94.7051 194.422 93.8262ZM198.26 89.4121C198.26 87.4785 199.979 86.1797 202.547 86.1797C205.008 86.1797 206.727 87.5078 206.775 89.4414H204.51C204.432 88.543 203.66 87.9766 202.498 87.9766C201.365 87.9766 200.623 88.4941 200.623 89.2754C200.623 89.8711 201.121 90.2812 202.176 90.5254L204.051 90.9551C206.199 91.4531 207.02 92.2637 207.02 93.8359C207.02 95.8184 205.164 97.1562 202.488 97.1562C199.871 97.1562 198.143 95.8379 197.986 93.8555H200.379C200.525 94.8223 201.316 95.3594 202.586 95.3594C203.826 95.3594 204.598 94.8613 204.598 94.0703C204.598 93.4453 204.207 93.1133 203.143 92.8594L201.209 92.3906C199.256 91.9316 198.26 90.9258 198.26 89.4121Z" fill="#171717"/>
</svg>
