<svg width="141" height="118" viewBox="0 0 141 118" fill="none" xmlns="http://www.w3.org/2000/svg">
<path d="M113.155 77.3352C108.796 90.5204 99.8828 101.69 88.0393 108.81C76.1957 115.93 62.2089 118.528 48.6247 116.13C35.0405 113.733 22.7622 106.499 14.0248 95.7465C5.28742 84.9938 0.671808 71.4369 1.01817 57.5433C1.36453 43.6498 6.64983 30.3435 15.912 20.0465C25.1742 9.7495 37.7974 3.14648 51.4839 1.43935C65.1704 -0.267788 79.0101 3.03447 90.484 10.745C101.958 18.4556 110.303 30.0618 114 43.451" stroke="#171717"/>
<path d="M37.6641 62.0352H40.1055C40.2617 63.334 41.5605 64.1836 43.2793 64.1836C44.9785 64.1836 46.1602 63.3438 46.1602 62.1719C46.1602 61.1562 45.4375 60.5703 43.6602 60.1504L41.834 59.7207C39.2363 59.125 38.0059 57.875 38.0059 55.8633C38.0059 53.3633 40.1836 51.6738 43.25 51.6738C46.3555 51.6738 48.4062 53.3535 48.4648 55.834H46.0625C45.9453 54.5156 44.8418 53.7246 43.2305 53.7246C41.6387 53.7246 40.5645 54.5059 40.5645 55.6777C40.5645 56.6152 41.2773 57.1621 43.0059 57.5723L44.627 57.9434C47.4883 58.5977 48.6992 59.7793 48.6992 61.8789C48.6992 64.5547 46.5508 66.2344 43.1426 66.2344C39.9004 66.2344 37.7715 64.6328 37.6641 62.0352ZM54.9688 57.0742C53.543 57.0742 52.5078 58.1094 52.4004 59.6328H57.459C57.4102 58.0898 56.4141 57.0742 54.9688 57.0742ZM57.4688 62.8262H59.7539C59.4414 64.7988 57.5469 66.1562 55.0566 66.1562C51.9023 66.1562 49.9492 64.0664 49.9492 60.707C49.9492 57.3477 51.9121 55.1797 54.9688 55.1797C57.957 55.1797 59.8516 57.2207 59.8516 60.4531V61.2539H52.3809V61.4004C52.3809 63.1191 53.4746 64.2617 55.1055 64.2617C56.2773 64.2617 57.1855 63.7051 57.4688 62.8262ZM61.4922 66V55.3262H63.8262V57.1816H63.875C64.5098 55.8828 65.584 55.1992 67.2246 55.1992C69.5879 55.1992 70.9355 56.6934 70.9355 59.1641V66H68.5039V59.6426C68.5039 58.1191 67.7812 57.2598 66.3164 57.2598C64.8223 57.2598 63.9238 58.3145 63.9238 59.877V66H61.4922ZM76.9512 66.1172C74.2852 66.1172 72.5078 63.9785 72.5078 60.6582C72.5078 57.3477 74.2949 55.209 76.9414 55.209C78.4844 55.209 79.6855 55.9414 80.2617 57.123H80.3203V51.2539H82.752V66H80.3691V64.1836H80.3203C79.7441 65.375 78.5137 66.1172 76.9512 66.1172ZM77.6641 57.2305C76.0527 57.2305 74.998 58.5781 74.998 60.668C74.998 62.7676 76.0527 64.0957 77.6641 64.0957C79.2754 64.0957 80.3301 62.7383 80.3301 60.668C80.3301 58.6074 79.2656 57.2305 77.6641 57.2305ZM93.3574 66.1172C90.6914 66.1172 88.9141 63.9785 88.9141 60.6582C88.9141 57.3477 90.7012 55.209 93.3477 55.209C94.8906 55.209 96.0918 55.9414 96.668 57.123H96.7266V51.2539H99.1582V66H96.7754V64.1836H96.7266C96.1504 65.375 94.9199 66.1172 93.3574 66.1172ZM94.0703 57.2305C92.459 57.2305 91.4043 58.5781 91.4043 60.668C91.4043 62.7676 92.459 64.0957 94.0703 64.0957C95.6816 64.0957 96.7363 62.7383 96.7363 60.668C96.7363 58.6074 95.6719 57.2305 94.0703 57.2305ZM105.867 57.0742C104.441 57.0742 103.406 58.1094 103.299 59.6328H108.357C108.309 58.0898 107.312 57.0742 105.867 57.0742ZM108.367 62.8262H110.652C110.34 64.7988 108.445 66.1562 105.955 66.1562C102.801 66.1562 100.848 64.0664 100.848 60.707C100.848 57.3477 102.811 55.1797 105.867 55.1797C108.855 55.1797 110.75 57.2207 110.75 60.4531V61.2539H103.279V61.4004C103.279 63.1191 104.373 64.2617 106.004 64.2617C107.176 64.2617 108.084 63.7051 108.367 62.8262ZM112.391 66V55.3262H114.725V57.2012H114.773C115.242 55.9609 116.404 55.1992 117.811 55.1992C119.314 55.1992 120.398 55.9609 120.799 57.3184H120.848C121.365 56.0098 122.645 55.1992 124.178 55.1992C126.277 55.1992 127.664 56.6055 127.664 58.7344V66H125.232V59.3301C125.232 58.002 124.529 57.25 123.279 57.25C122.059 57.25 121.209 58.1582 121.209 59.457V66H118.846V59.1934C118.846 57.9922 118.104 57.25 116.922 57.25C115.691 57.25 114.822 58.1973 114.822 59.5156V66H112.391ZM134.383 66.1562C131.238 66.1562 129.246 64.0664 129.246 60.6582C129.246 57.2891 131.258 55.1797 134.383 55.1797C137.527 55.1797 139.529 57.2793 139.529 60.6582C139.529 64.0664 137.547 66.1562 134.383 66.1562ZM134.383 64.2129C136.062 64.2129 137.059 62.9043 137.059 60.668C137.059 58.4316 136.053 57.123 134.383 57.123C132.723 57.123 131.717 58.4414 131.717 60.668C131.717 62.9043 132.723 64.2129 134.383 64.2129Z" fill="#171717"/>
</svg>
