<svg width="207" height="180" viewBox="0 0 207 180" fill="none" xmlns="http://www.w3.org/2000/svg">
<path d="M174.436 118.135C167.694 138.368 153.911 155.507 135.597 166.433C117.282 177.359 95.6528 181.345 74.6464 177.666C53.6399 173.987 34.6529 162.887 21.1415 146.387C7.63002 129.887 0.492487 109.084 1.0281 87.765C1.5637 66.4455 9.73684 46.0272 24.0598 30.2266C38.3827 14.426 57.9031 4.29375 79.0678 1.67417C100.232 -0.945403 121.634 4.12187 139.377 15.9536C157.12 27.7854 170.025 45.5949 175.742 66.1404" stroke="#171717"/>
<path d="M105.613 93.0352H108.055C108.211 94.334 109.51 95.1836 111.229 95.1836C112.928 95.1836 114.109 94.3438 114.109 93.1719C114.109 92.1562 113.387 91.5703 111.609 91.1504L109.783 90.7207C107.186 90.125 105.955 88.875 105.955 86.8633C105.955 84.3633 108.133 82.6738 111.199 82.6738C114.305 82.6738 116.355 84.3535 116.414 86.834H114.012C113.895 85.5156 112.791 84.7246 111.18 84.7246C109.588 84.7246 108.514 85.5059 108.514 86.6777C108.514 87.6152 109.227 88.1621 110.955 88.5723L112.576 88.9434C115.438 89.5977 116.648 90.7793 116.648 92.8789C116.648 95.5547 114.5 97.2344 111.092 97.2344C107.85 97.2344 105.721 95.6328 105.613 93.0352ZM118.426 97V82.2539H120.828V88.1816H120.877C121.502 86.8828 122.615 86.1992 124.246 86.1992C126.6 86.1992 127.986 87.752 127.986 90.1836V97H125.555V90.6719C125.555 89.168 124.803 88.2598 123.328 88.2598C121.785 88.2598 120.857 89.3242 120.857 90.916V97H118.426ZM134.695 97.1562C131.551 97.1562 129.559 95.0664 129.559 91.6582C129.559 88.2891 131.57 86.1797 134.695 86.1797C137.84 86.1797 139.842 88.2793 139.842 91.6582C139.842 95.0664 137.859 97.1562 134.695 97.1562ZM134.695 95.2129C136.375 95.2129 137.371 93.9043 137.371 91.668C137.371 89.4316 136.365 88.123 134.695 88.123C133.035 88.123 132.029 89.4414 132.029 91.668C132.029 93.9043 133.035 95.2129 134.695 95.2129ZM155.799 86.3262L152.898 97H150.35L148.221 89.1582H148.162L146.043 97H143.514L140.613 86.3262H143.045L144.881 94.5684H144.93L147.049 86.3262H149.383L151.502 94.5684H151.551L153.396 86.3262H155.799ZM161.531 97V86.3262H163.865V88.2012H163.914C164.383 86.9609 165.545 86.1992 166.951 86.1992C168.455 86.1992 169.539 86.9609 169.939 88.3184H169.988C170.506 87.0098 171.785 86.1992 173.318 86.1992C175.418 86.1992 176.805 87.6055 176.805 89.7344V97H174.373V90.3301C174.373 89.002 173.67 88.25 172.42 88.25C171.199 88.25 170.35 89.1582 170.35 90.457V97H167.986V90.1934C167.986 88.9922 167.244 88.25 166.062 88.25C164.832 88.25 163.963 89.1973 163.963 90.5156V97H161.531ZM183.523 97.1562C180.379 97.1562 178.387 95.0664 178.387 91.6582C178.387 88.2891 180.398 86.1797 183.523 86.1797C186.668 86.1797 188.67 88.2793 188.67 91.6582C188.67 95.0664 186.688 97.1562 183.523 97.1562ZM183.523 95.2129C185.203 95.2129 186.199 93.9043 186.199 91.668C186.199 89.4316 185.193 88.123 183.523 88.123C181.863 88.123 180.857 89.4414 180.857 91.668C180.857 93.9043 181.863 95.2129 183.523 95.2129ZM190.301 97V86.3262H192.635V88.1816H192.684C193.025 86.9316 193.982 86.209 195.242 86.209C195.564 86.209 195.838 86.248 196.023 86.3066V88.5137C195.818 88.4355 195.438 88.377 195.018 88.377C193.592 88.377 192.732 89.3047 192.732 90.8086V97H190.301ZM201.512 88.0742C200.086 88.0742 199.051 89.1094 198.943 90.6328H204.002C203.953 89.0898 202.957 88.0742 201.512 88.0742ZM204.012 93.8262H206.297C205.984 95.7988 204.09 97.1562 201.6 97.1562C198.445 97.1562 196.492 95.0664 196.492 91.707C196.492 88.3477 198.455 86.1797 201.512 86.1797C204.5 86.1797 206.395 88.2207 206.395 91.4531V92.2539H198.924V92.4004C198.924 94.1191 200.018 95.2617 201.648 95.2617C202.82 95.2617 203.729 94.7051 204.012 93.8262Z" fill="#171717"/>
</svg>
