<svg width="210" height="180" viewBox="0 0 210 180" fill="none" xmlns="http://www.w3.org/2000/svg">
<path d="M174.436 118.135C167.694 138.368 153.911 155.507 135.597 166.433C117.282 177.359 95.6528 181.345 74.6464 177.666C53.6399 173.987 34.6529 162.887 21.1415 146.387C7.63002 129.887 0.492487 109.084 1.0281 87.765C1.5637 66.4455 9.73684 46.0272 24.0598 30.2266C38.3827 14.426 57.9031 4.29375 79.0678 1.67417C100.232 -0.945403 121.634 4.12187 139.377 15.9536C157.12 27.7854 170.025 45.5949 175.742 66.1404" stroke="#171717"/>
<path d="M44.5645 91.1211C44.5645 93.0352 44.0241 94.5326 42.9434 95.6133C41.8561 96.694 40.349 97.2344 38.4219 97.2344C36.3646 97.2344 34.7402 96.5801 33.5488 95.2715C32.3509 93.9564 31.752 92.166 31.752 89.9004C31.752 87.6673 32.3477 85.903 33.5391 84.6074C34.724 83.3184 36.3353 82.6738 38.373 82.6738C39.9746 82.6738 41.332 83.1068 42.4453 83.9727C43.5586 84.8385 44.2292 85.9779 44.457 87.3906H41.8984C41.6576 86.5833 41.2279 85.9518 40.6094 85.4961C39.9909 85.0404 39.2487 84.8125 38.3828 84.8125C37.1133 84.8125 36.1204 85.2585 35.4043 86.1504C34.6882 87.0423 34.3301 88.2826 34.3301 89.8711C34.3301 91.4922 34.7012 92.7682 35.4434 93.6992C36.179 94.6302 37.1816 95.0957 38.4512 95.0957C39.5124 95.0957 40.3815 94.7897 41.0586 94.1777C41.7292 93.5658 42.0742 92.765 42.0938 91.7754L42.1035 91.541H38.7051V89.6172H44.5645V91.1211ZM51.1074 97.1562C49.5319 97.1562 48.2819 96.6647 47.3574 95.6816C46.4329 94.6986 45.9707 93.3574 45.9707 91.6582C45.9707 89.9785 46.4362 88.6439 47.3672 87.6543C48.2917 86.6712 49.5384 86.1797 51.1074 86.1797C52.6829 86.1797 53.9329 86.6712 54.8574 87.6543C55.7884 88.6374 56.2539 89.972 56.2539 91.6582C56.2539 93.3574 55.7917 94.6986 54.8672 95.6816C53.9427 96.6647 52.6895 97.1562 51.1074 97.1562ZM51.1074 95.2129C51.9473 95.2129 52.6048 94.9004 53.0801 94.2754C53.5488 93.6569 53.7832 92.7878 53.7832 91.668C53.7832 90.5547 53.5456 89.6855 53.0703 89.0605C52.6016 88.4355 51.9473 88.123 51.1074 88.123C50.2741 88.123 49.623 88.4355 49.1543 89.0605C48.679 89.6855 48.4414 90.5547 48.4414 91.668C48.4414 92.7812 48.679 93.6504 49.1543 94.2754C49.623 94.9004 50.2741 95.2129 51.1074 95.2129ZM65.4727 83.9434V86.3262H67.4941V88.2109H65.4727V93.8359C65.4727 94.7018 65.9023 95.1348 66.7617 95.1348C66.9831 95.1348 67.224 95.1185 67.4844 95.0859V96.9512C67.1914 97.0163 66.765 97.0488 66.2051 97.0488C65.0723 97.0488 64.2617 96.8275 63.7734 96.3848C63.2852 95.9355 63.041 95.1966 63.041 94.168V88.2109H61.5859V86.3262H63.041V83.9434H65.4727ZM73.7051 97.1562C72.1296 97.1562 70.8796 96.6647 69.9551 95.6816C69.0306 94.6986 68.5684 93.3574 68.5684 91.6582C68.5684 89.9785 69.0339 88.6439 69.9648 87.6543C70.8893 86.6712 72.1361 86.1797 73.7051 86.1797C75.2806 86.1797 76.5306 86.6712 77.4551 87.6543C78.3861 88.6374 78.8516 89.972 78.8516 91.6582C78.8516 93.3574 78.3893 94.6986 77.4648 95.6816C76.5404 96.6647 75.2871 97.1562 73.7051 97.1562ZM73.7051 95.2129C74.5449 95.2129 75.2025 94.9004 75.6777 94.2754C76.1465 93.6569 76.3809 92.7878 76.3809 91.668C76.3809 90.5547 76.1432 89.6855 75.668 89.0605C75.1992 88.4355 74.5449 88.123 73.7051 88.123C72.8717 88.123 72.2207 88.4355 71.752 89.0605C71.2767 89.6855 71.0391 90.5547 71.0391 91.668C71.0391 92.7812 71.2767 93.6504 71.752 94.2754C72.2207 94.9004 72.8717 95.2129 73.7051 95.2129ZM88.0703 83.9434V86.3262H90.0918V88.2109H88.0703V93.8359C88.0703 94.7018 88.5 95.1348 89.3594 95.1348C89.5807 95.1348 89.8216 95.1185 90.082 95.0859V96.9512C89.7891 97.0163 89.3626 97.0488 88.8027 97.0488C87.6699 97.0488 86.8594 96.8275 86.3711 96.3848C85.8828 95.9355 85.6387 95.1966 85.6387 94.168V88.2109H84.1836V86.3262H85.6387V83.9434H88.0703ZM91.8887 82.2539H94.291V88.1816H94.3398C94.9779 86.86 96.1335 86.1992 97.8066 86.1992C98.985 86.1992 99.9258 86.5605 100.629 87.2832C101.332 87.9993 101.684 88.9661 101.684 90.1836V97H99.252V90.6719C99.252 89.9167 99.0436 89.3275 98.627 88.9043C98.2038 88.4746 97.6243 88.2598 96.8887 88.2598C96.127 88.2598 95.5085 88.5039 95.0332 88.9922C94.5579 89.4805 94.3203 90.1217 94.3203 90.916V97H91.8887V82.2539ZM108.275 88.0742C107.566 88.0742 106.973 88.3086 106.498 88.7773C106.023 89.2526 105.759 89.8711 105.707 90.6328H110.766C110.74 89.8646 110.499 89.2461 110.043 88.7773C109.587 88.3086 108.998 88.0742 108.275 88.0742ZM113.061 93.8262C112.904 94.8158 112.393 95.6165 111.527 96.2285C110.661 96.847 109.607 97.1562 108.363 97.1562C106.788 97.1562 105.541 96.668 104.623 95.6914C103.712 94.7148 103.256 93.3867 103.256 91.707C103.256 90.0273 103.712 88.6862 104.623 87.6836C105.528 86.681 106.745 86.1797 108.275 86.1797C109.773 86.1797 110.961 86.6549 111.84 87.6055C112.719 88.556 113.158 89.8385 113.158 91.4531V92.2539H105.688V92.4004C105.688 93.2598 105.938 93.9499 106.439 94.4707C106.941 94.998 107.598 95.2617 108.412 95.2617C108.998 95.2617 109.503 95.1315 109.926 94.8711C110.349 94.6172 110.632 94.2689 110.775 93.8262H113.061ZM119.34 86.3262H121.771V97H119.34V86.3262ZM120.551 84.9688C120.173 84.9688 119.851 84.8385 119.584 84.5781C119.317 84.3177 119.184 84.002 119.184 83.6309C119.184 83.2533 119.317 82.9342 119.584 82.6738C119.851 82.4199 120.173 82.293 120.551 82.293C120.935 82.293 121.257 82.4199 121.518 82.6738C121.785 82.9342 121.918 83.2533 121.918 83.6309C121.918 84.0085 121.785 84.3242 121.518 84.5781C121.257 84.8385 120.935 84.9688 120.551 84.9688ZM123.92 86.3262H126.254V88.1816H126.303C126.947 86.86 128.096 86.1992 129.75 86.1992C130.935 86.1992 131.866 86.5508 132.543 87.2539C133.22 87.957 133.559 88.9271 133.559 90.1641V97H131.127V90.6426C131.127 89.8809 130.928 89.2917 130.531 88.875C130.134 88.4648 129.571 88.2598 128.842 88.2598C128.093 88.2598 127.491 88.5007 127.035 88.9824C126.579 89.4642 126.352 90.0957 126.352 90.877V97H123.92V86.3262ZM135.395 89.4121C135.395 88.4421 135.788 87.6608 136.576 87.0684C137.364 86.4759 138.399 86.1797 139.682 86.1797C140.912 86.1797 141.918 86.4824 142.699 87.0879C143.48 87.6868 143.884 88.4714 143.91 89.4414H141.645C141.605 88.9922 141.407 88.6341 141.049 88.3672C140.684 88.1068 140.212 87.9766 139.633 87.9766C139.066 87.9766 138.614 88.0938 138.275 88.3281C137.93 88.569 137.758 88.8848 137.758 89.2754C137.758 89.8678 138.275 90.2845 139.311 90.5254L141.186 90.9551C142.26 91.2025 143.025 91.5475 143.48 91.9902C143.93 92.4329 144.154 93.0482 144.154 93.8359C144.154 94.8255 143.734 95.6263 142.895 96.2383C142.055 96.8503 140.964 97.1562 139.623 97.1562C138.321 97.1562 137.263 96.8535 136.449 96.248C135.642 95.6491 135.199 94.8516 135.121 93.8555H137.514C137.663 94.8581 138.399 95.3594 139.721 95.3594C140.339 95.3594 140.831 95.2422 141.195 95.0078C141.553 94.7799 141.732 94.4674 141.732 94.0703C141.732 93.7578 141.622 93.5104 141.4 93.3281C141.186 93.1393 140.811 92.9831 140.277 92.8594L138.344 92.3906C136.378 91.9284 135.395 90.9355 135.395 89.4121ZM148.891 83.9434V86.3262H150.912V88.2109H148.891V93.8359C148.891 94.7018 149.32 95.1348 150.18 95.1348C150.401 95.1348 150.642 95.1185 150.902 95.0859V96.9512C150.609 97.0163 150.183 97.0488 149.623 97.0488C148.49 97.0488 147.68 96.8275 147.191 96.3848C146.703 95.9355 146.459 95.1966 146.459 94.168V88.2109H145.004V86.3262H146.459V83.9434H148.891ZM156.41 95.252C157.152 95.252 157.771 95.0436 158.266 94.627C158.76 94.2103 159.008 93.6797 159.008 93.0352V92.2246L156.566 92.3809C155.212 92.472 154.535 92.9603 154.535 93.8457C154.535 94.2754 154.708 94.6172 155.053 94.8711C155.391 95.125 155.844 95.252 156.41 95.252ZM155.697 97.1172C154.643 97.1172 153.78 96.8242 153.109 96.2383C152.432 95.6523 152.094 94.8874 152.094 93.9434C152.094 92.9928 152.449 92.2507 153.158 91.7168C153.861 91.1829 154.887 90.8737 156.234 90.7891L159.008 90.623V89.8418C159.008 89.2819 158.826 88.849 158.461 88.543C158.103 88.2435 157.595 88.0938 156.938 88.0938C156.391 88.0938 155.932 88.224 155.561 88.4844C155.189 88.7448 154.962 89.0931 154.877 89.5293H152.631C152.663 88.5527 153.087 87.7487 153.9 87.1172C154.721 86.4922 155.759 86.1797 157.016 86.1797C158.35 86.1797 159.415 86.4987 160.209 87.1367C161.01 87.7747 161.41 88.6243 161.41 89.6855V97H159.076V95.2812H159.018C158.725 95.8477 158.275 96.2969 157.67 96.6289C157.071 96.9544 156.413 97.1172 155.697 97.1172ZM168.129 94.998C168.943 94.998 169.594 94.6953 170.082 94.0898C170.57 93.4779 170.814 92.6608 170.814 91.6387C170.814 90.61 170.57 89.7865 170.082 89.168C169.587 88.543 168.936 88.2305 168.129 88.2305C167.328 88.2305 166.69 88.5397 166.215 89.1582C165.733 89.7702 165.492 90.597 165.492 91.6387C165.492 92.6673 165.733 93.4844 166.215 94.0898C166.69 94.6953 167.328 94.998 168.129 94.998ZM168.129 100.867C166.794 100.867 165.694 100.59 164.828 100.037C163.962 99.4772 163.484 98.7318 163.393 97.8008H165.824C165.928 98.1849 166.199 98.4909 166.635 98.7188C167.064 98.9401 167.589 99.0508 168.207 99.0508C169.001 99.0508 169.633 98.862 170.102 98.4844C170.577 98.1003 170.814 97.5794 170.814 96.9219V95.1055H170.756C170.469 95.6784 170.033 96.1309 169.447 96.4629C168.848 96.7949 168.168 96.9609 167.406 96.9609C166.078 96.9609 165.014 96.4792 164.213 95.5156C163.406 94.5456 163.002 93.25 163.002 91.6289C163.002 89.9753 163.406 88.6569 164.213 87.6738C165.014 86.6973 166.094 86.209 167.455 86.209C169.031 86.209 170.15 86.847 170.814 88.123H170.863V86.3262H173.246V96.7363C173.246 98.0059 172.784 99.0117 171.859 99.7539C170.941 100.496 169.698 100.867 168.129 100.867ZM175.326 86.3262H177.66V88.1816H177.709C177.878 87.5566 178.191 87.0716 178.646 86.7266C179.096 86.3815 179.636 86.209 180.268 86.209C180.567 86.209 180.814 86.2415 181.01 86.3066V88.5234C180.795 88.4258 180.473 88.377 180.043 88.377C179.333 88.377 178.773 88.5951 178.363 89.0312C177.96 89.4609 177.758 90.0534 177.758 90.8086V97H175.326V86.3262ZM186.117 95.252C186.859 95.252 187.478 95.0436 187.973 94.627C188.467 94.2103 188.715 93.6797 188.715 93.0352V92.2246L186.273 92.3809C184.919 92.472 184.242 92.9603 184.242 93.8457C184.242 94.2754 184.415 94.6172 184.76 94.8711C185.098 95.125 185.551 95.252 186.117 95.252ZM185.404 97.1172C184.35 97.1172 183.487 96.8242 182.816 96.2383C182.139 95.6523 181.801 94.8874 181.801 93.9434C181.801 92.9928 182.156 92.2507 182.865 91.7168C183.568 91.1829 184.594 90.8737 185.941 90.7891L188.715 90.623V89.8418C188.715 89.2819 188.533 88.849 188.168 88.543C187.81 88.2435 187.302 88.0938 186.645 88.0938C186.098 88.0938 185.639 88.224 185.268 88.4844C184.896 88.7448 184.669 89.0931 184.584 89.5293H182.338C182.37 88.5527 182.794 87.7487 183.607 87.1172C184.428 86.4922 185.466 86.1797 186.723 86.1797C188.057 86.1797 189.122 86.4987 189.916 87.1367C190.717 87.7747 191.117 88.6243 191.117 89.6855V97H188.783V95.2812H188.725C188.432 95.8477 187.982 96.2969 187.377 96.6289C186.778 96.9544 186.12 97.1172 185.404 97.1172ZM193.158 86.3262H195.492V88.2012H195.541C195.775 87.5827 196.166 87.0944 196.713 86.7363C197.253 86.3783 197.875 86.1992 198.578 86.1992C199.333 86.1992 199.968 86.3815 200.482 86.7461C201.003 87.1172 201.365 87.6413 201.566 88.3184H201.615C201.876 87.6673 202.305 87.1497 202.904 86.7656C203.497 86.388 204.177 86.1992 204.945 86.1992C205.993 86.1992 206.837 86.5215 207.475 87.166C208.113 87.8105 208.432 88.6667 208.432 89.7344V97H206V90.3301C206 89.666 205.831 89.1517 205.492 88.7871C205.154 88.429 204.672 88.25 204.047 88.25C203.435 88.25 202.937 88.4551 202.553 88.8652C202.169 89.2754 201.977 89.806 201.977 90.457V97H199.613V90.1934C199.613 89.5944 199.441 89.1191 199.096 88.7676C198.751 88.4225 198.282 88.25 197.689 88.25C197.077 88.25 196.573 88.4616 196.176 88.8848C195.785 89.3145 195.59 89.8581 195.59 90.5156V97H193.158V86.3262Z" fill="#171717"/>
</svg>
