<svg width="208" height="180" viewBox="0 0 208 180" fill="none" xmlns="http://www.w3.org/2000/svg">
<path d="M174.436 118.135C167.694 138.368 153.911 155.507 135.597 166.433C117.282 177.359 95.6528 181.345 74.6464 177.666C53.6399 173.987 34.6529 162.887 21.1415 146.387C7.63002 129.887 0.492487 109.084 1.0281 87.765C1.5637 66.4455 9.73684 46.0272 24.0598 30.2266C38.3827 14.426 57.9031 4.29375 79.0678 1.67417C100.232 -0.945403 121.634 4.12187 139.377 15.9536C157.12 27.7854 170.025 45.5949 175.742 66.1404" stroke="white"/>
<path d="M118.41 94.8711V97H109.494V82.9082H112.014V94.8711H118.41ZM120.08 97V86.3262H122.512V97H120.08ZM121.291 84.9688C120.539 84.9688 119.924 84.3828 119.924 83.6309C119.924 82.8691 120.539 82.293 121.291 82.293C122.053 82.293 122.658 82.8691 122.658 83.6309C122.658 84.3828 122.053 84.9688 121.291 84.9688ZM124.475 89.4121C124.475 87.4785 126.193 86.1797 128.762 86.1797C131.223 86.1797 132.941 87.5078 132.99 89.4414H130.725C130.646 88.543 129.875 87.9766 128.713 87.9766C127.58 87.9766 126.838 88.4941 126.838 89.2754C126.838 89.8711 127.336 90.2812 128.391 90.5254L130.266 90.9551C132.414 91.4531 133.234 92.2637 133.234 93.8359C133.234 95.8184 131.379 97.1562 128.703 97.1562C126.086 97.1562 124.357 95.8379 124.201 93.8555H126.594C126.74 94.8223 127.531 95.3594 128.801 95.3594C130.041 95.3594 130.812 94.8613 130.812 94.0703C130.812 93.4453 130.422 93.1133 129.357 92.8594L127.424 92.3906C125.471 91.9316 124.475 90.9258 124.475 89.4121ZM135.539 83.9434H137.971V86.3262H139.992V88.2109H137.971V93.8359C137.971 94.7148 138.381 95.1348 139.26 95.1348C139.494 95.1348 139.826 95.1055 139.982 95.0859V96.9512C139.719 97.0098 139.221 97.0488 138.703 97.0488C136.438 97.0488 135.539 96.2285 135.539 94.168V88.2109H134.084V86.3262H135.539V83.9434ZM146.086 88.0742C144.66 88.0742 143.625 89.1094 143.518 90.6328H148.576C148.527 89.0898 147.531 88.0742 146.086 88.0742ZM148.586 93.8262H150.871C150.559 95.7988 148.664 97.1562 146.174 97.1562C143.02 97.1562 141.066 95.0664 141.066 91.707C141.066 88.3477 143.029 86.1797 146.086 86.1797C149.074 86.1797 150.969 88.2207 150.969 91.4531V92.2539H143.498V92.4004C143.498 94.1191 144.592 95.2617 146.223 95.2617C147.395 95.2617 148.303 94.7051 148.586 93.8262ZM152.609 97V86.3262H154.943V88.1816H154.992C155.627 86.8828 156.701 86.1992 158.342 86.1992C160.705 86.1992 162.053 87.6934 162.053 90.1641V97H159.621V90.6426C159.621 89.1191 158.898 88.2598 157.434 88.2598C155.939 88.2598 155.041 89.3145 155.041 90.877V97H152.609ZM168.625 97V82.2539H171.027V88.1816H171.076C171.701 86.8828 172.814 86.1992 174.445 86.1992C176.799 86.1992 178.186 87.752 178.186 90.1836V97H175.754V90.6719C175.754 89.168 175.002 88.2598 173.527 88.2598C171.984 88.2598 171.057 89.3242 171.057 90.916V97H168.625ZM184.777 88.0742C183.352 88.0742 182.316 89.1094 182.209 90.6328H187.268C187.219 89.0898 186.223 88.0742 184.777 88.0742ZM187.277 93.8262H189.562C189.25 95.7988 187.355 97.1562 184.865 97.1562C181.711 97.1562 179.758 95.0664 179.758 91.707C179.758 88.3477 181.721 86.1797 184.777 86.1797C187.766 86.1797 189.66 88.2207 189.66 91.4531V92.2539H182.189V92.4004C182.189 94.1191 183.283 95.2617 184.914 95.2617C186.086 95.2617 186.994 94.7051 187.277 93.8262ZM191.301 97V86.3262H193.635V88.1816H193.684C194.025 86.9316 194.982 86.209 196.242 86.209C196.564 86.209 196.838 86.248 197.023 86.3066V88.5137C196.818 88.4355 196.438 88.377 196.018 88.377C194.592 88.377 193.732 89.3047 193.732 90.8086V97H191.301ZM202.512 88.0742C201.086 88.0742 200.051 89.1094 199.943 90.6328H205.002C204.953 89.0898 203.957 88.0742 202.512 88.0742ZM205.012 93.8262H207.297C206.984 95.7988 205.09 97.1562 202.6 97.1562C199.445 97.1562 197.492 95.0664 197.492 91.707C197.492 88.3477 199.455 86.1797 202.512 86.1797C205.5 86.1797 207.395 88.2207 207.395 91.4531V92.2539H199.924V92.4004C199.924 94.1191 201.018 95.2617 202.648 95.2617C203.82 95.2617 204.729 94.7051 205.012 93.8262Z" fill="white"/>
</svg>
