<svg width="161" height="62" viewBox="0 0 161 62" fill="none" xmlns="http://www.w3.org/2000/svg">
<path d="M58.9305 40.476C56.6787 47.2945 52.075 53.0706 45.9576 56.7527C39.8402 60.4349 32.6157 61.7783 25.5991 60.5384C18.5826 59.2985 12.2407 55.5578 7.7276 49.9972C3.21454 44.4365 0.830482 37.4257 1.00938 30.2408C1.18829 23.0559 3.91826 16.1747 8.70236 10.8497C13.4865 5.52471 20.0066 2.11003 27.076 1.2272C34.1453 0.344377 41.2939 2.05211 47.2203 6.03954C53.1468 10.027 57.4572 16.029 59.3669 22.9531" stroke="white"/>
<path d="M23.3447 30.6406C23.1494 30.8358 23.1494 31.1524 23.3447 31.3477L26.5267 34.5297C26.7219 34.7249 27.0385 34.7249 27.2338 34.5297C27.429 34.3344 27.429 34.0178 27.2338 33.8226L24.4053 30.9941L27.2338 28.1657C27.429 27.9705 27.429 27.6539 27.2338 27.4586C27.0385 27.2633 26.7219 27.2633 26.5267 27.4586L23.3447 30.6406ZM23.6982 31.4941H69.5V30.4941H23.6982V31.4941Z" fill="white"/>
<path d="M102.569 21.5123C104.821 14.6937 109.425 8.91767 115.542 5.23553C121.66 1.55339 128.884 0.209991 135.901 1.44987C142.917 2.68975 149.259 6.43047 153.772 11.9911C158.285 17.5518 160.67 24.5626 160.491 31.7475C160.312 38.9324 157.582 45.8136 152.798 51.1386C148.014 56.4636 141.493 59.8782 134.424 60.7611C127.355 61.6439 120.206 59.9362 114.28 55.9487C108.353 51.9613 104.043 45.9593 102.133 39.0352" stroke="white"/>
<path d="M138.155 31.3477C138.351 31.1524 138.351 30.8358 138.155 30.6406L134.973 27.4586C134.778 27.2633 134.461 27.2633 134.266 27.4586C134.071 27.6539 134.071 27.9705 134.266 28.1657L137.095 30.9941L134.266 33.8226C134.071 34.0178 134.071 34.3344 134.266 34.5297C134.461 34.7249 134.778 34.7249 134.973 34.5297L138.155 31.3477ZM137.802 30.4941L92 30.4941L92 31.4941L137.802 31.4941L137.802 30.4941Z" fill="white"/>
</svg>
